<svg xmlns="http://www.w3.org/2000/svg" xmlns:xlink="http://www.w3.org/1999/xlink" xmlns:lucid="lucid" width="1476.63" height="352.36"><g transform="translate(1530.6759039067917 -58.79511127884575)" lucid:page-tab-id="VjMd39PQffTe"><path d="M-1490.18 410.66h-32a8 8 0 0 1-8-8V67.3a8 8 0 0 1 8-8h32z" stroke="#333" fill="#d0cee2"/><path d="M-1490.18 59.3H-62.54a8 8 0 0 1 8 8v335.36a8 8 0 0 1-8 8h-1427.64z" stroke="#333" fill="none"/><use xlink:href="#a" transform="matrix(-1.8369701987210297e-16,-1,1,-1.8369701987210297e-16,-1530.1759039067917,410.6588855325283) translate(107.1 23.6)"/><path d="M-1369.13 217.62c0 16.57-13.43 30-30 30s-30-13.43-30-30 13.43-30 30-30 30 13.43 30 30z" stroke="#333" fill="#d0cee2"/><use xlink:href="#b" transform="matrix(1,0,0,1,-1429.1311623082145,249.61767740309767) translate(8.524999999999999 14.4)"/><path d="M-1281.54 165.62a8 8 0 0 1 8-8h144a8 8 0 0 1 8 8v104a8 8 0 0 1-8 8h-144a8 8 0 0 1-8-8z" stroke="#333" fill="#d0cee2"/><path d="M-1216.54 236.42h30v30h-30zm15 5.4v19.2m-9.6-9.6h19.2" stroke="#333" fill="none"/><use xlink:href="#c" transform="matrix(1,0,0,1,-1281.5420499540721,157.61767740309767) translate(30.07999999999999 40.65)"/><use xlink:href="#d" transform="matrix(1,0,0,1,-1281.5420499540721,157.61767740309767) translate(109.93 40.65)"/><use xlink:href="#e" transform="matrix(1,0,0,1,-1281.5420499540721,157.61767740309767) translate(48.029999999999994 62.25)"/><path d="M-1053.2 156.8a8 8 0 0 1 8-8H-878a8 8 0 0 1 8 8v121.63a8 8 0 0 1-8 8h-167.2a8 8 0 0 1-8-8z" stroke="#333" fill="#d0cee2"/><path d="M-976.6 245.05h30v30h-30zm15 5.4v19.2m-9.6-9.6h19.2" stroke="#333" fill="none"/><use xlink:href="#f" transform="matrix(1,0,0,1,-1053.1890211317245,148.80937171422812) translate(10.104999999999999 61.8375)"/><use xlink:href="#g" transform="matrix(1,0,0,1,-1053.1890211317245,148.80937171422812) translate(152.905 61.8375)"/><use xlink:href="#h" transform="matrix(1,0,0,1,-1053.1890211317245,148.80937171422812) translate(66.555 83.4375)"/><path d="M-583.36 170.28a8 8 0 0 1 8-8h128.23a8 8 0 0 1 8 8v94.67a8 8 0 0 1-8 8h-128.23a8 8 0 0 1-8-8z" stroke="#333" fill="#d0cee2"/><path d="M-526.25 231.84h30v30h-30zm15 5.4v19.2m-9.6-9.6h19.2" stroke="#333" fill="none"/><use xlink:href="#i" transform="matrix(1,0,0,1,-583.3638399852731,162.2843440697643) translate(27.054999999999993 35.2125)"/><use xlink:href="#g" transform="matrix(1,0,0,1,-583.3638399852731,162.2843440697643) translate(96.95500000000001 35.2125)"/><use xlink:href="#h" transform="matrix(1,0,0,1,-583.3638399852731,162.2843440697643) translate(47.055 56.8125)"/><path d="M-117.62 217.62c0 16.57-13.43 30-30 30-16.56 0-30-13.43-30-30s13.44-30 30-30c16.57 0 30 13.43 30 30z" stroke="#56517e" stroke-width="5" fill="#d0cee2"/><use xlink:href="#j" transform="matrix(1,0,0,1,-177.61616974053118,249.61767740309762) translate(15.075 14.4)"/><path d="M-766.76 217.62l37.5-37.5 37.5 37.5-37.5 37.5z" stroke="#56517e" fill="#d0cee2"/><path d="M-744.26 202.62l30 30m-30 0l30-30" stroke="#56517e" fill="none"/><use xlink:href="#k" transform="matrix(1,0,0,1,-766.7572813047443,255.11767740309767) translate(-8.400000000000006 14.4)"/><path d="M-1368.13 217.62h69.7" stroke="#333" fill="none"/><path d="M-1368.12 218.12h-.55l.04-.5-.02-.5h.53z" stroke="#333" stroke-width=".05" fill="#333"/><path d="M-1283.66 217.62l-14.27 4.63v-9.27z" stroke="#333" fill="#333"/><path d="M-1120.54 217.62h50.47" stroke="#333" fill="none"/><path d="M-1120.53 218.12h-.5v-1h.5z" stroke="#333" stroke-width=".05" fill="#333"/><path d="M-1055.3 217.62l-14.27 4.63v-9.27z" stroke="#333" fill="#333"/><path d="M-869 217.62h85.15" stroke="#333" fill="none"/><path d="M-869 218.12h-.5v-1h.5z" stroke="#333" stroke-width=".05" fill="#333"/><path d="M-769.08 217.62l-14.27 4.63v-9.27z" stroke="#333" fill="#333"/><path d="M-730.87 107.84l.4.1.35.14.33.2.3.26.27.3.2.33.15.37.1.38.02.37v68.6h-1v-68.57l-.02-.25-.05-.23-.1-.22-.12-.2-.15-.18-.18-.15-.2-.13-.2-.1-.24-.04-.26-.02h-82.12v-1h82.16zm-115.48.97h-113.23l-.25.03-.23.05-.22.1-.2.12-.18.15-.15.18-.13.2-.1.22-.05.23-.02.25v21.6h-1V110.3l.03-.38.1-.38.14-.37.2-.33.26-.3.3-.25.34-.22.36-.15.38-.1.38-.02h113.27z" stroke="#333" stroke-width=".05" fill="#333"/><path d="M-728.76 179.9l-.5-.5-.5.5v-1h1z" fill="#333"/><path d="M-728.73 179.97l-.53-.52-.52.52v-1.1h1.05zm-1-1.05v.93l.47-.47.48.47v-.93z" stroke="#333" stroke-width=".05" fill="#333"/><path d="M-961.6 146.7l-4.63-14.27h9.27z" fill="#333"/><path d="M-961.6 148.3l-5.32-16.37h10.64zm-3.95-15.37l3.95 12.14 3.95-12.14z" stroke="#333" stroke-width=".05" fill="#333"/><use xlink:href="#l" transform="matrix(1,0,0,1,-846.3526388111893,97.50942171422811) translate(0.004999999999999005 14.4)"/><path d="M-667.2 218.12h-23.35v-1h23.36zm66.95 0h-36.04v-1h36.05z" stroke="#333" stroke-width=".05" fill="#333"/><path d="M-690.54 218.12h-1l.5-.5-.5-.5h1z" fill="#333"/><path d="M-690.5 218.14h-1.1l.5-.52-.5-.53h1.1zm-1-1l.5.48-.5.47h.94v-.96z" stroke="#333" stroke-width=".05" fill="#333"/><path d="M-585.48 217.62l-14.27 4.63v-9.27z" fill="#333"/><path d="M-583.86 217.62l-16.4 5.32V212.3zm-15.4 3.94l12.16-3.94-12.15-3.95z" stroke="#333" stroke-width=".05" fill="#333"/><use xlink:href="#m" transform="matrix(1,0,0,1,-667.1873461788609,206.81767740309766) translate(0.005000000000000782 14.4)"/><path d="M-372.34 217.62l37.5-37.5 37.5 37.5-37.5 37.5z" stroke="#56517e" fill="#d0cee2"/><path d="M-349.84 202.62l30 30m-30 0l30-30" stroke="#56517e" fill="none"/><path d="M-438.13 217.62H-389.43" stroke="#333" fill="none"/><path d="M-438.1 218.12h-.53v-1h.52z" stroke="#333" stroke-width=".05" fill="#333"/><path d="M-374.66 217.62l-14.27 4.63v-9.27z" stroke="#333" fill="#333"/><path d="M-274 218.12h-22.13v-1H-274zm77.5 0h-46.6v-1h46.6z" stroke="#333" stroke-width=".05" fill="#333"/><path d="M-296.12 218.12h-1l.5-.5-.5-.5h1z" fill="#333"/><path d="M-296.1 218.14h-1.1l.53-.52-.52-.53h1.1zm-.97-1l.47.48-.47.47h.93v-.96z" stroke="#333" stroke-width=".05" fill="#333"/><path d="M-181.74 217.62l-14.26 4.63v-9.27z" fill="#333"/><path d="M-180.12 217.62l-16.38 5.32V212.3zm-15.38 3.94l12.15-3.94-12.15-3.95z" stroke="#333" stroke-width=".05" fill="#333"/><use xlink:href="#m" transform="matrix(1,0,0,1,-274.01442116410556,206.8176774030976) translate(0.005000000000000782 14.4)"/><path d="M-961.1 327.9l.02.25.06.23.1.22.1.2.16.17.18.16.2.12.22.1.23.04h310.69v1H-960l-.37-.1-.37-.16-.33-.2-.3-.26-.25-.3-.2-.33-.16-.36-.1-.4-.02-.37V303.3h1zm626.76.03l-.03.38-.1.4-.14.35-.2.33-.27.3-.3.26-.33.2-.37.15-.38.08-.37.03H-616.2v-1H-336.6l.23-.06.2-.1.2-.1.2-.17.14-.18.13-.2.1-.22.04-.23.02-.25v-71.57h1z" stroke="#333" stroke-width=".05" fill="#333"/><path d="M-334.34 256.34h-1v-1l.5.48.5-.5z" fill="#333"/><path d="M-334.3 256.36h-1.06v-1.1l.52.53.53-.54zm-.54-.5l-.47-.48v.93h.94v-.92z" stroke="#333" stroke-width=".05" fill="#333"/><path d="M-956.96 302.8h-9.27l4.63-14.26z" fill="#333"/><path d="M-956.28 303.3h-10.64l5.32-16.37zm-9.27-1h7.9l-3.95-12.14z" stroke="#333" stroke-width=".05" fill="#333"/><g><use xlink:href="#l" transform="matrix(1,0,0,1,-649.1430821106993,319.1142323114676) translate(0.004999999999999005 14.4)"/></g><path d="M-454.84 146.53a8 8 0 0 1 8-8h224a8 8 0 0 1 8 8v44a8 8 0 0 1-8 8h-224a8 8 0 0 1-8-8z" fill="none"/><g><use xlink:href="#n" transform="matrix(1,0,0,1,-454.83816752602536,138.52777420563643) translate(76.525 33.6)"/></g><defs><path fill="#333" d="M30-248c118-7 216 8 213 122C240-48 200 0 122 0H30v-248zM63-27c89 8 146-16 146-99s-60-101-146-95v194" id="o"/><path fill="#333" d="M100-194c63 0 86 42 84 106H49c0 40 14 67 53 68 26 1 43-12 49-29l28 8c-11 28-37 45-77 45C44 4 14-33 15-96c1-61 26-98 85-98zm52 81c6-60-76-77-97-28-3 7-6 17-6 28h103" id="p"/><path fill="#333" d="M135-143c-3-34-86-38-87 0 15 53 115 12 119 90S17 21 10-45l28-5c4 36 97 45 98 0-10-56-113-15-118-90-4-57 82-63 122-42 12 7 21 19 24 35" id="q"/><path fill="#333" d="M117-194c89-4 53 116 60 194h-32v-121c0-31-8-49-39-48C34-167 62-67 57 0H25l-1-190h30c1 10-1 24 2 32 11-22 29-35 61-36" id="r"/><path fill="#333" d="M108 0H70L1-190h34L89-25l56-165h34" id="s"/><path fill="#333" d="M100-194c62-1 85 37 85 99 1 63-27 99-86 99S16-35 15-95c0-66 28-99 85-99zM99-20c44 1 53-31 53-75 0-43-8-75-51-75s-53 32-53 75 10 74 51 75" id="t"/><path fill="#333" d="M24 0v-261h32V0H24" id="u"/><path fill="#333" d="M24-231v-30h32v30H24zM24 0v-190h32V0H24" id="v"/><path fill="#333" d="M210-169c-67 3-38 105-44 169h-31v-121c0-29-5-50-35-48C34-165 62-65 56 0H25l-1-190h30c1 10-1 24 2 32 10-44 99-50 107 0 11-21 27-35 58-36 85-2 47 119 55 194h-31v-121c0-29-5-49-35-48" id="w"/><path fill="#333" d="M59-47c-2 24 18 29 38 22v24C64 9 27 4 27-40v-127H5v-23h24l9-43h21v43h35v23H59v120" id="x"/><g id="a"><use transform="matrix(0.05,0,0,0.05,0,0)" xlink:href="#o"/><use transform="matrix(0.05,0,0,0.05,12.950000000000001,0)" xlink:href="#p"/><use transform="matrix(0.05,0,0,0.05,22.950000000000003,0)" xlink:href="#q"/><use transform="matrix(0.05,0,0,0.05,31.950000000000003,0)" xlink:href="#p"/><use transform="matrix(0.05,0,0,0.05,41.95,0)" xlink:href="#r"/><use transform="matrix(0.05,0,0,0.05,51.95,0)" xlink:href="#s"/><use transform="matrix(0.05,0,0,0.05,60.95,0)" xlink:href="#t"/><use transform="matrix(0.05,0,0,0.05,70.95,0)" xlink:href="#u"/><use transform="matrix(0.05,0,0,0.05,74.9,0)" xlink:href="#s"/><use transform="matrix(0.05,0,0,0.05,83.9,0)" xlink:href="#v"/><use transform="matrix(0.05,0,0,0.05,87.85000000000001,0)" xlink:href="#w"/><use transform="matrix(0.05,0,0,0.05,102.80000000000001,0)" xlink:href="#p"/><use transform="matrix(0.05,0,0,0.05,112.80000000000001,0)" xlink:href="#r"/><use transform="matrix(0.05,0,0,0.05,122.80000000000001,0)" xlink:href="#x"/><use transform="matrix(0.05,0,0,0.05,127.80000000000001,0)" xlink:href="#t"/></g><path fill="#333" d="M33 0v-248h34V0H33" id="y"/><path fill="#333" d="M34 0v-190h32V0H34zM24-211c8-23 27-35 38-54h36v5l-58 49H24" id="z"/><path fill="#333" d="M96-169c-40 0-48 33-48 73s9 75 48 75c24 0 41-14 43-38l32 2c-6 37-31 61-74 61-59 0-76-41-82-99-10-93 101-131 147-64 4 7 5 14 7 22l-32 3c-4-21-16-35-41-35" id="A"/><g id="b"><use transform="matrix(0.05,0,0,0.05,0,0)" xlink:href="#y"/><use transform="matrix(0.05,0,0,0.05,5,0)" xlink:href="#r"/><use transform="matrix(0.05,0,0,0.05,15,0)" xlink:href="#z"/><use transform="matrix(0.05,0,0,0.05,20,0)" xlink:href="#A"/><use transform="matrix(0.05,0,0,0.05,29,0)" xlink:href="#v"/><use transform="matrix(0.05,0,0,0.05,32.95,0)" xlink:href="#t"/></g><path fill="#333" d="M101-234c-31-9-42 10-38 44h38v23H63V0H32v-167H5v-23h27c-7-52 17-82 69-68v24" id="B"/><path fill="#333" d="M96-169c-40 0-48 33-48 73s9 75 48 75c24 0 41-14 43-38l32 2c-6 37-31 61-74 61-59 0-76-41-82-99-10-93 101-131 147-64 4 7 5 14 7 22l-32 3c-4-21-16-35-41-35zm3 187c19-1 33 8 33 26 0 31-30 33-64 32V58c18 2 39 4 41-13 1-15-18-13-34-13L87 0h19" id="C"/><path fill="#333" d="M141-36C126-15 110 5 73 4 37 3 15-17 15-53c-1-64 63-63 125-63 3-35-9-54-41-54-24 1-41 7-42 31l-33-3c5-37 33-52 76-52 45 0 72 20 72 64v82c-1 20 7 32 28 27v20c-31 9-61-2-59-35zM48-53c0 20 12 33 32 33 41-3 63-29 60-74-43 2-92-5-92 41zm117-205c-3 23-9 48-36 47-26-1-65-44-74 0H39c4-23 8-48 36-47s64 44 74 0h16" id="D"/><g id="c"><use transform="matrix(0.05,0,0,0.05,0,0)" xlink:href="#o"/><use transform="matrix(0.05,0,0,0.05,12.950000000000001,0)" xlink:href="#p"/><use transform="matrix(0.05,0,0,0.05,22.950000000000003,0)" xlink:href="#B"/><use transform="matrix(0.05,0,0,0.05,27.950000000000003,0)" xlink:href="#v"/><use transform="matrix(0.05,0,0,0.05,31.900000000000002,0)" xlink:href="#r"/><use transform="matrix(0.05,0,0,0.05,41.900000000000006,0)" xlink:href="#v"/><use transform="matrix(0.05,0,0,0.05,45.85000000000001,0)" xlink:href="#C"/><use transform="matrix(0.05,0,0,0.05,54.85,0)" xlink:href="#D"/><use transform="matrix(0.05,0,0,0.05,64.85000000000001,0)" xlink:href="#t"/></g><path fill="#333" d="M85-194c31 0 48 13 60 33l-1-100h32l1 261h-30c-2-10 0-23-3-31C134-8 116 4 85 4 32 4 16-35 15-94c0-66 23-100 70-100zm9 24c-40 0-46 34-46 75 0 40 6 74 45 74 42 0 51-32 51-76 0-42-9-74-50-73" id="E"/><g id="d"><use transform="matrix(0.05,0,0,0.05,0,0)" xlink:href="#E"/><use transform="matrix(0.05,0,0,0.05,10,0)" xlink:href="#t"/></g><path fill="#333" d="M160-131c35 5 61 23 61 61C221 17 115-2 30 0v-248c76 3 177-17 177 60 0 33-19 50-47 57zm-97-11c50-1 110 9 110-42 0-47-63-36-110-37v79zm0 115c55-2 124 14 124-45 0-56-70-42-124-44v89" id="F"/><path fill="#333" d="M141-36C126-15 110 5 73 4 37 3 15-17 15-53c-1-64 63-63 125-63 3-35-9-54-41-54-24 1-41 7-42 31l-33-3c5-37 33-52 76-52 45 0 72 20 72 64v82c-1 20 7 32 28 27v20c-31 9-61-2-59-35zM48-53c0 20 12 33 32 33 41-3 63-29 60-74-43 2-92-5-92 41" id="G"/><path fill="#333" d="M143 0L79-87 56-68V0H24v-261h32v163l83-92h37l-77 82L181 0h-38" id="H"/><path fill="#333" d="M177-190C167-65 218 103 67 71c-23-6-38-20-44-43l32-5c15 47 100 32 89-28v-30C133-14 115 1 83 1 29 1 15-40 15-95c0-56 16-97 71-98 29-1 48 16 59 35 1-10 0-23 2-32h30zM94-22c36 0 50-32 50-73 0-42-14-75-50-75-39 0-46 34-46 75s6 73 46 73" id="I"/><g id="e"><use transform="matrix(0.05,0,0,0.05,0,0)" xlink:href="#F"/><use transform="matrix(0.05,0,0,0.05,12,0)" xlink:href="#G"/><use transform="matrix(0.05,0,0,0.05,22,0)" xlink:href="#A"/><use transform="matrix(0.05,0,0,0.05,31,0)" xlink:href="#H"/><use transform="matrix(0.05,0,0,0.05,40,0)" xlink:href="#u"/><use transform="matrix(0.05,0,0,0.05,43.95,0)" xlink:href="#t"/><use transform="matrix(0.05,0,0,0.05,53.95,0)" xlink:href="#I"/></g><g id="f"><use transform="matrix(0.05,0,0,0.05,0,0)" xlink:href="#o"/><use transform="matrix(0.05,0,0,0.05,12.950000000000001,0)" xlink:href="#p"/><use transform="matrix(0.05,0,0,0.05,22.950000000000003,0)" xlink:href="#q"/><use transform="matrix(0.05,0,0,0.05,31.950000000000003,0)" xlink:href="#p"/><use transform="matrix(0.05,0,0,0.05,41.95,0)" xlink:href="#r"/><use transform="matrix(0.05,0,0,0.05,51.95,0)" xlink:href="#s"/><use transform="matrix(0.05,0,0,0.05,60.95,0)" xlink:href="#t"/><use transform="matrix(0.05,0,0,0.05,70.95,0)" xlink:href="#u"/><use transform="matrix(0.05,0,0,0.05,74.9,0)" xlink:href="#s"/><use transform="matrix(0.05,0,0,0.05,83.9,0)" xlink:href="#v"/><use transform="matrix(0.05,0,0,0.05,87.85000000000001,0)" xlink:href="#w"/><use transform="matrix(0.05,0,0,0.05,102.80000000000001,0)" xlink:href="#p"/><use transform="matrix(0.05,0,0,0.05,112.80000000000001,0)" xlink:href="#r"/><use transform="matrix(0.05,0,0,0.05,122.80000000000001,0)" xlink:href="#x"/><use transform="matrix(0.05,0,0,0.05,127.80000000000001,0)" xlink:href="#t"/></g><g id="g"><use transform="matrix(0.05,0,0,0.05,0,0)" xlink:href="#E"/><use transform="matrix(0.05,0,0,0.05,10,0)" xlink:href="#p"/></g><path fill="#333" d="M127-220V0H93v-220H8v-28h204v28h-85" id="J"/><path fill="#333" d="M114-163C36-179 61-72 57 0H25l-1-190h30c1 12-1 29 2 39 6-27 23-49 58-41v29" id="K"/><g id="h"><use transform="matrix(0.05,0,0,0.05,0,0)" xlink:href="#J"/><use transform="matrix(0.05,0,0,0.05,8.950000000000001,0)" xlink:href="#G"/><use transform="matrix(0.05,0,0,0.05,18.950000000000003,0)" xlink:href="#K"/><use transform="matrix(0.05,0,0,0.05,24.900000000000002,0)" xlink:href="#p"/><use transform="matrix(0.05,0,0,0.05,34.900000000000006,0)" xlink:href="#B"/><use transform="matrix(0.05,0,0,0.05,39.900000000000006,0)" xlink:href="#G"/></g><path fill="#333" d="M233-177c-1 41-23 64-60 70L243 0h-38l-65-103H63V0H30v-248c88 3 205-21 203 71zM63-129c60-2 137 13 137-47 0-61-80-42-137-45v92" id="L"/><g id="i"><use transform="matrix(0.05,0,0,0.05,0,0)" xlink:href="#L"/><use transform="matrix(0.05,0,0,0.05,12.950000000000001,0)" xlink:href="#p"/><use transform="matrix(0.05,0,0,0.05,22.950000000000003,0)" xlink:href="#s"/><use transform="matrix(0.05,0,0,0.05,31.950000000000003,0)" xlink:href="#v"/><use transform="matrix(0.05,0,0,0.05,35.900000000000006,0)" xlink:href="#q"/><use transform="matrix(0.05,0,0,0.05,44.900000000000006,0)" xlink:href="#D"/><use transform="matrix(0.05,0,0,0.05,54.900000000000006,0)" xlink:href="#t"/></g><path fill="#333" d="M63-220v92h138v28H63V0H30v-248h175v28H63" id="M"/><g id="j"><use transform="matrix(0.05,0,0,0.05,0,0)" xlink:href="#M"/><use transform="matrix(0.05,0,0,0.05,10.950000000000001,0)" xlink:href="#v"/><use transform="matrix(0.05,0,0,0.05,14.9,0)" xlink:href="#w"/></g><path fill="#333" d="M9 0v-24l116-142H16v-24h144v24L44-24h123V0H9" id="N"/><path fill="#333" d="M103-251c84 0 111 97 45 133-19 10-37 24-39 52H78c0-63 77-55 77-114 0-30-21-42-52-43-32 0-53 17-56 46l-32-2c7-45 34-72 88-72zM77 0v-35h34V0H77" id="O"/><g id="k"><use transform="matrix(0.05,0,0,0.05,0,0)" xlink:href="#M"/><use transform="matrix(0.05,0,0,0.05,10.950000000000001,0)" xlink:href="#v"/><use transform="matrix(0.05,0,0,0.05,14.9,0)" xlink:href="#r"/><use transform="matrix(0.05,0,0,0.05,24.900000000000002,0)" xlink:href="#G"/><use transform="matrix(0.05,0,0,0.05,34.900000000000006,0)" xlink:href="#u"/><use transform="matrix(0.05,0,0,0.05,38.85000000000001,0)" xlink:href="#v"/><use transform="matrix(0.05,0,0,0.05,42.80000000000001,0)" xlink:href="#N"/><use transform="matrix(0.05,0,0,0.05,51.80000000000001,0)" xlink:href="#G"/><use transform="matrix(0.05,0,0,0.05,61.80000000000001,0)" xlink:href="#E"/><use transform="matrix(0.05,0,0,0.05,71.80000000000001,0)" xlink:href="#G"/><use transform="matrix(0.05,0,0,0.05,81.80000000000001,0)" xlink:href="#O"/></g><path fill="#333" d="M190 0L58-211 59 0H30v-248h39L202-35l-2-213h31V0h-41" id="P"/><g id="l"><use transform="matrix(0.05,0,0,0.05,0,0)" xlink:href="#P"/><use transform="matrix(0.05,0,0,0.05,12.950000000000001,0)" xlink:href="#D"/><use transform="matrix(0.05,0,0,0.05,22.950000000000003,0)" xlink:href="#t"/></g><path fill="#333" d="M185-189c-5-48-123-54-124 2 14 75 158 14 163 119 3 78-121 87-175 55-17-10-28-26-33-46l33-7c5 56 141 63 141-1 0-78-155-14-162-118-5-82 145-84 179-34 5 7 8 16 11 25" id="Q"/><g id="m"><use transform="matrix(0.05,0,0,0.05,0,0)" xlink:href="#Q"/><use transform="matrix(0.05,0,0,0.05,12,0)" xlink:href="#v"/><use transform="matrix(0.05,0,0,0.05,15.949999999999998,0)" xlink:href="#w"/></g><path fill="#333" d="M205 0l-28-72H64L36 0H1l101-248h38L239 0h-34zm-38-99l-47-123c-12 45-31 82-46 123h93" id="R"/><path fill="#333" d="M115-194c55 1 70 41 70 98S169 2 115 4C84 4 66-9 55-30l1 105H24l-1-265h31l2 30c10-21 28-34 59-34zm-8 174c40 0 45-34 45-75s-6-73-45-74c-42 0-51 32-51 76 0 43 10 73 51 73" id="S"/><g id="n"><use transform="matrix(0.05,0,0,0.05,0,0)" xlink:href="#R"/><use transform="matrix(0.05,0,0,0.05,12,0)" xlink:href="#S"/><use transform="matrix(0.05,0,0,0.05,22,0)" xlink:href="#K"/><use transform="matrix(0.05,0,0,0.05,27.950000000000003,0)" xlink:href="#t"/><use transform="matrix(0.05,0,0,0.05,37.95,0)" xlink:href="#s"/><use transform="matrix(0.05,0,0,0.05,46.95,0)" xlink:href="#G"/><use transform="matrix(0.05,0,0,0.05,56.95,0)" xlink:href="#E"/><use transform="matrix(0.05,0,0,0.05,66.95,0)" xlink:href="#G"/><use transform="matrix(0.05,0,0,0.05,76.95,0)" xlink:href="#O"/></g></defs></g></svg>