<svg xmlns="http://www.w3.org/2000/svg" xmlns:xlink="http://www.w3.org/1999/xlink" xmlns:lucid="lucid" width="1389.35" height="708.31"><g transform="translate(306.68034421978086 280.33729769945404)" lucid:page-tab-id="0_0"><path d="M-246.18 407.47h-32a8 8 0 0 1-8-8v-651.3a8 8 0 0 1 8-8h32z" stroke="#333" fill="#d0cee2"/><path d="M-246.18-259.84h1300.35a8 8 0 0 1 8 8v651.3a8 8 0 0 1-8 8H-246.18z" stroke="#333" fill="none"/><use xlink:href="#a" transform="matrix(-1.8369701987210297e-16,-1,1,-1.8369701987210297e-16,-286.1803442197808,407.46890462015557) translate(195 24.1)"/><use xlink:href="#b" transform="matrix(-1.8369701987210297e-16,-1,1,-1.8369701987210297e-16,-286.1803442197808,407.46890462015557) translate(270.2 24.1)"/><use xlink:href="#c" transform="matrix(-1.8369701987210297e-16,-1,1,-1.8369701987210297e-16,-286.1803442197808,407.46890462015557) translate(295.2 24.1)"/><use xlink:href="#b" transform="matrix(-1.8369701987210297e-16,-1,1,-1.8369701987210297e-16,-286.1803442197808,407.46890462015557) translate(385.1 24.1)"/><use xlink:href="#d" transform="matrix(-1.8369701987210297e-16,-1,1,-1.8369701987210297e-16,-286.1803442197808,407.46890462015557) translate(410.1 24.1)"/><use xlink:href="#e" transform="matrix(-1.8369701987210297e-16,-1,1,-1.8369701987210297e-16,-286.1803442197808,407.46890462015557) translate(463 24.1)"/><path d="M-16.8-139.1a8 8 0 0 1 8-8h157.47a8 8 0 0 1 8 8V-84a8 8 0 0 1-8 8H-8.8a8 8 0 0 1-8-8z" stroke="#333" fill="#d0cee2"/><use xlink:href="#f" transform="matrix(1,0,0,1,-16.788716839638738,-147.106436021495) translate(30.44450617283951 27.427777777777777)"/><use xlink:href="#g" transform="matrix(1,0,0,1,-16.788716839638738,-147.106436021495) translate(53.39111111111111 51.69444444444444)"/><path d="M-103.64-111.56c0 16.57-13.43 30-30 30-16.56 0-30-13.43-30-30s13.44-30 30-30c16.57 0 30 13.43 30 30z" stroke="#333" fill="#d0cee2"/><use xlink:href="#h" transform="matrix(1,0,0,1,-163.6345875432723,-79.55989636273603) translate(8.524999999999999 14.4)"/><path d="M-48.38-8.97a8 8 0 0 1 8-8h220.64a8 8 0 0 1 8 8V102.8a8 8 0 0 1-8 8H-40.38a8 8 0 0 1-8-8z" stroke="#333" fill="#d0cee2"/><path d="M54.94 69.5h30v30h-30zm15 5.4v19.2m-9.6-9.6h19.2" stroke="#333" fill="none"/><use xlink:href="#i" transform="matrix(1,0,0,1,-48.37721836836948,-16.96707827483729) translate(49.49666666666666 24.177777777777777)"/><use xlink:href="#j" transform="matrix(1,0,0,1,-48.37721836836948,-16.96707827483729) translate(154.9330864197531 24.177777777777777)"/><use xlink:href="#k" transform="matrix(1,0,0,1,-48.37721836836948,-16.96707827483729) translate(57.894506172839506 48.44444444444444)"/><use xlink:href="#l" transform="matrix(1,0,0,1,-48.37721836836948,-16.96707827483729) translate(156.64635802469138 48.44444444444444)"/><use xlink:href="#m" transform="matrix(1,0,0,1,-48.37721836836948,-16.96707827483729) translate(41.09882716049383 72.71111111111111)"/><path d="M283.3-8.97a8 8 0 0 1 8-8h203.55a8 8 0 0 1 8 8V102.8a8 8 0 0 1-8 8H291.3a8 8 0 0 1-8-8z" stroke="#333" fill="#d0cee2"/><path d="M378.07 69.5h30v30h-30zm15 5.4v19.2m-9.6-9.6h19.2" stroke="#333" fill="none"/><use xlink:href="#i" transform="matrix(1,0,0,1,283.30041281464804,-16.967078279712865) translate(10.157777777777776 48.17777777777778)"/><use xlink:href="#n" transform="matrix(1,0,0,1,283.30041281464804,-16.967078279712865) translate(115.59419753086421 48.17777777777778)"/><use xlink:href="#o" transform="matrix(1,0,0,1,283.30041281464804,-16.967078279712865) translate(143.68061728395062 48.17777777777778)"/><use xlink:href="#p" transform="matrix(1,0,0,1,283.30041281464804,-16.967078279712865) translate(45.462407407407404 72.44444444444444)"/><use xlink:href="#q" transform="matrix(1,0,0,1,283.30041281464804,-16.967078279712865) translate(73.54882716049383 72.44444444444444)"/><path d="M617.75 8.16a8 8 0 0 1 8-8h175.33a8 8 0 0 1 8 8v88a8 8 0 0 1-8 8H625.74a8 8 0 0 1-8-8z" stroke="#333" fill="#d0cee2"/><use xlink:href="#r" transform="matrix(1,0,0,1,617.7445696092389,0.15677433225550885) translate(49.02197530864197 45.70902777777778)"/><use xlink:href="#s" transform="matrix(1,0,0,1,617.7445696092389,0.15677433225550885) translate(130.75345679012347 45.70902777777778)"/><use xlink:href="#t" transform="matrix(1,0,0,1,617.7445696092389,0.15677433225550885) translate(45.0337037037037 69.97569444444444)"/><path d="M633.4 199.62a8 8 0 0 1 8-8h144a8 8 0 0 1 8 8v70.67a8 8 0 0 1-8 8h-144a8 8 0 0 1-8-8z" stroke="#333" fill="#d0cee2"/><use xlink:href="#u" transform="matrix(1,0,0,1,633.4112362759056,191.6212478527608) translate(22.203148148148145 35.20902777777778)"/><use xlink:href="#v" transform="matrix(1,0,0,1,633.4112362759056,191.6212478527608) translate(126.57228395061728 35.20902777777778)"/><use xlink:href="#w" transform="matrix(1,0,0,1,633.4112362759056,191.6212478527608) translate(53.68802469135803 59.47569444444444)"/><path d="M970.66 234.96c0 16.56-13.43 30-30 30s-30-13.44-30-30c0-16.57 13.43-30 30-30s30 13.43 30 30z" stroke="#56517e" stroke-width="5" fill="#d0cee2"/><use xlink:href="#x" transform="matrix(1,0,0,1,910.657690365721,266.9545811860941) translate(15.075 14.4)"/><path d="M-102.63-111.56h68.96" stroke="#333" fill="none"/><path d="M-102.62-111.06h-.55l.04-.5-.02-.5h.53z" stroke="#333" stroke-width=".05" fill="#333"/><path d="M-18.9-111.56l-14.27 4.64v-9.27z" stroke="#333" fill="#333"/><path d="M69.94-75v41.15" stroke="#333" fill="none"/><path d="M70.44-75h-1v-.5h1z" stroke="#333" stroke-width=".05" fill="#333"/><path d="M69.94-19.09L65.3-33.34h9.28z" stroke="#333" fill="#333"/><path d="M189.26 46.9h77.16" stroke="#333" fill="none"/><path d="M189.27 47.4h-.5v-1h.5z" stroke="#333" stroke-width=".05" fill="#333"/><path d="M281.18 46.9l-14.26 4.65v-9.27z" stroke="#333" fill="#333"/><path d="M713.4 105.16v69.58" stroke="#333" fill="none"/><path d="M713.9 105.17h-1v-.5h1z" stroke="#333" stroke-width=".05" fill="#333"/><path d="M713.4 189.5l-4.62-14.26h9.27z" stroke="#333" fill="#333"/><path d="M794.4 234.96h97.37" stroke="#333" fill="none"/><path d="M794.42 235.46h-.5v-1h.5z" stroke="#333" stroke-width=".05" fill="#333"/><path d="M906.54 234.96l-14.27 4.63v-9.28z" stroke="#333" fill="#333"/><path d="M496.63-240.22l32.95 31.34v73.1h-82.4V-240.2z" stroke="#333" fill="#fff"/><path d="M496.63-240.22v31.34h32.95" stroke="#333" fill="none"/><use xlink:href="#y" transform="matrix(1,0,0,1,447.19418772544594,-135.7664380378098) translate(41.5 14.4)"/><use xlink:href="#z" transform="matrix(1,0,0,1,447.19418772544594,-135.7664380378098) translate(15.549999999999997 36)"/><use xlink:href="#A" transform="matrix(1,0,0,1,447.19418772544594,-135.7664380378098) translate(15.024999999999999 57.6)"/><use xlink:href="#B" transform="matrix(1,0,0,1,447.19418772544594,-135.7664380378098) translate(57.975 57.6)"/><use xlink:href="#C" transform="matrix(1,0,0,1,447.19418772544594,-135.7664380378098) translate(-6.400000000000006 79.20000000000002)"/><use xlink:href="#D" transform="matrix(1,0,0,1,447.19418772544594,-135.7664380378098) translate(7.524999999999999 100.80000000000001)"/><use xlink:href="#E" transform="matrix(1,0,0,1,447.19418772544594,-135.7664380378098) translate(59.525 100.80000000000001)"/><path d="M948.9-157.5l32.95 31.33v73.11h-82.38V-157.5z" stroke="#333" fill="#fff"/><path d="M948.9-157.5v31.33h32.95" stroke="#333" fill="none"/><use xlink:href="#y" transform="matrix(1,0,0,1,899.4656859799923,-53.054972975963494) translate(41.5 14.4)"/><use xlink:href="#F" transform="matrix(1,0,0,1,899.4656859799923,-53.054972975963494) translate(-3.4250000000000043 36)"/><use xlink:href="#G" transform="matrix(1,0,0,1,899.4656859799923,-53.054972975963494) translate(22.074999999999996 57.6)"/><path d="M393.07-17.97v-1.48m0-1.98v-2.96m0-1.97v-2.96m0-1.98v-2.97m0-1.98v-2.97m0-1.97v-2.96m0-1.98v-2.96m0-1.98v-2.96m0-1.98v-2.96m0-1.98v-2.97m0-1.97v-2.97m0-1.98v-2.96m0-2v-2.95m0-1.98v-2.96m0-1.97v-2.97m0-1.97v-2.98m0-1.98v-2.96m0-1.98v-2.96m0-1.98v-2.96m0-1.98v-2.97m0-1.97v-2.97m0-1.97v-2.96m0-1.98v-2.97m0-1.98v-2.96m0-2v-2.96m0-1.97V-143m0-1.97v-2.97m0-1.98v-2.96m0-1.98v-2.96m0-1.98v-2.97m0-1.97v-2.97m0-1.98v-2.97m0-1.98v-2.96m0-1.97v-2.96m0-1.98v-1.5l.03-.3.07-.3.12-.3.15-.27.2-.24.25-.2.27-.18.28-.12.3-.07.32-.02h1.5m2.03 0h3.02m2 0h3.03m2 0h3.04m2 0h3.02m2 0h3.03m2.02 0h3.02m2 0h1.5" stroke="#333" fill="none"/><path d="M393.57-17.47h-1v-.5h1z" stroke="#333" stroke-width=".05" fill="#333"/><path d="M445.08-188l-14.27 4.64v-9.27z" stroke="#333" fill="#333"/><path d="M-146.88-5.32l32.95 31.34v73.12h-82.38V-5.32z" stroke="#333" fill="#fff"/><path d="M-146.88-5.32v31.34h32.95" stroke="#333" fill="none"/><g><use xlink:href="#y" transform="matrix(1,0,0,1,-196.31291011273834,99.13653950551657) translate(41.5 14.4)"/><use xlink:href="#H" transform="matrix(1,0,0,1,-196.31291011273834,99.13653950551657) translate(-7.425000000000004 36)"/><use xlink:href="#I" transform="matrix(1,0,0,1,-196.31291011273834,99.13653950551657) translate(-27.400000000000006 57.6)"/></g><path d="M-112.93 46.9h1.6m2.1 0h3.2m2.1 0h3.18m2.12 0h3.18m2.12 0h3.17m2.12 0h3.18m2.12 0h3.18m2.12 0h3.17m2.12 0h3.18m2.12 0h1.6" stroke="#333" fill="none"/><path d="M-112.92 47.4h-.5v-1h.5z" stroke="#333" stroke-width=".05" fill="#333"/><path d="M-50.5 46.9l-14.26 4.65v-9.27z" stroke="#333" fill="#333"/><path d="M-12.9 137.48l32.97 31.33v73.13h-82.4V137.48z" stroke="#333" fill="#fff"/><path d="M-12.9 137.48v31.33h32.97" stroke="#333" fill="none"/><g><use xlink:href="#y" transform="matrix(1,0,0,1,-62.3161319133842,241.9305682696616) translate(41.5 14.4)"/><use xlink:href="#z" transform="matrix(1,0,0,1,-62.3161319133842,241.9305682696616) translate(15.549999999999997 36)"/><use xlink:href="#A" transform="matrix(1,0,0,1,-62.3161319133842,241.9305682696616) translate(15.024999999999999 57.6)"/><use xlink:href="#J" transform="matrix(1,0,0,1,-62.3161319133842,241.9305682696616) translate(57.975 57.6)"/><use xlink:href="#C" transform="matrix(1,0,0,1,-62.3161319133842,241.9305682696616) translate(-6.400000000000006 79.20000000000002)"/><use xlink:href="#D" transform="matrix(1,0,0,1,-62.3161319133842,241.9305682696616) translate(7.524999999999999 100.80000000000001)"/><use xlink:href="#E" transform="matrix(1,0,0,1,-62.3161319133842,241.9305682696616) translate(59.525 100.80000000000001)"/></g><path d="M69.94 111.8v1.5m0 2.03v3.04m0 2.02v3.03m0 2.02v3.04m0 2v3.05m0 2.02v3.04m0 2.04v3.03m0 2.03v3.03m0 2.03v3.03m0 2.02v3.04m0 2.02v3.04m0 2.02v3.04m0 2.02v3.04m0 2.02v3.04m0 2.03v3.03m0 2.03v1.5l-.02.32-.08.3-.12.3-.16.26-.2.24-.24.2-.27.17-.3.1-.3.08-.3.02h-1.56m-2.07 0h-3.1m-2.07 0h-3.1m-2.06 0h-3.1m-2.07 0h-3.1m-2.06 0h-3.1m-2.07 0h-1.55" stroke="#333" fill="none"/><path d="M70.44 111.8h-1v-.5h1z" stroke="#333" stroke-width=".05" fill="#333"/><path d="M22.2 189.7l14.25-4.63v9.27z" stroke="#333" fill="#333"/><path d="M503.85 46.9h97" stroke="#333" fill="none"/><path d="M503.86 47.4h-.5v-1h.5z" stroke="#333" stroke-width=".05" fill="#333"/><path d="M615.63 46.9l-14.27 4.65v-9.27z" stroke="#333" fill="#333"/><path d="M810.58 52.16h3.13m4.17 0h6.26m4.17 0h6.25m4.17 0h6.25m4.17 0h3.13l.32-.03.3-.07.28-.12.27-.16.24-.2.2-.25.15-.27.12-.3.08-.3.02-.3V47.1m0-4.1v-6.14m0-4.1v-6.13m0-4.1V16.4m0-4.1V6.18m0-4.1v-6.13m0-4.1v-6.13m0-4.08v-6.14m0-4.1v-6.13m0-4.1v-6.13m0-4.1v-6.12m0-4.1v-6.13m0-4.1v-6.13m0-4.1v-6.13m0-4.08v-6.14m0-4.1v-3.06l.03-.3.07-.32.12-.3.15-.26.2-.24.25-.2.26-.16.3-.12.3-.08.3-.02h3.64m4.84 0H872m4.84 0h3.62" stroke="#5e5e5e" stroke-width="2" fill="none"/><path d="M810.6 53.16h-1.02v-2h1.02z" stroke="#5e5e5e" stroke-width=".05" fill="#5e5e5e"/><path d="M895.73-105.28l-14.27 4.63v-9.27z" stroke="#5e5e5e" stroke-width="2" fill="#5e5e5e"/><path d="M490.67 182.73l32.95 31.33v73.12h-82.38V182.73z" stroke="#333" fill="#fff"/><path d="M490.67 182.73v31.33h32.95" stroke="#333" fill="none"/><g><use xlink:href="#y" transform="matrix(1,0,0,1,441.23898787173533,287.18090274626365) translate(41.5 14.4)"/><use xlink:href="#H" transform="matrix(1,0,0,1,441.23898787173533,287.18090274626365) translate(-7.425000000000004 36)"/><use xlink:href="#K" transform="matrix(1,0,0,1,441.23898787173533,287.18090274626365) translate(12.049999999999997 57.6)"/><use xlink:href="#b" transform="matrix(1,0,0,1,441.23898787173533,287.18090274626365) translate(1.0499999999999972 79.20000000000002)"/><use xlink:href="#L" transform="matrix(1,0,0,1,441.23898787173533,287.18090274626365) translate(26.049999999999997 79.20000000000002)"/></g><path d="M440.24 234.96h-1.5m-2 0h-3.03m-2 0h-3m-2 0h-3.02m-2 0h-3.02m-2 0h-3.02m-2 0h-3.02m-2 0h-3.02m-2 0h-3m-2.02 0h-1.5l-.32-.03-.3-.07-.3-.12-.26-.17-.24-.2-.2-.24-.17-.27-.13-.3-.07-.3-.03-.3v-1.5m0-2.02v-3m0-2v-3.02m0-2v-3m0-2v-3.02m0-2v-3.02m0-2v-3m0-2.02v-3m0-2v-3.02m0-2v-3m0-2.02v-3m0-2v-3.02m0-2v-3m0-2.02v-3m0-2v-3.02m0-2v-3m0-2.02v-3m0-2v-3.02m0-2v-3m0-2.02v-3m0-2v-3.02m0-2v-1.5" stroke="#333" fill="none"/><path d="M440.74 235.46h-.5v-1h.5z" stroke="#333" stroke-width=".05" fill="#333"/><path d="M393.07 112.9l4.64 14.27h-9.26z" stroke="#333" fill="#333"/><defs><path fill="#333" d="M127-220V0H93v-220H8v-28h204v28h-85" id="M"/><path fill="#333" d="M114-163C36-179 61-72 57 0H25l-1-190h30c1 12-1 29 2 39 6-27 23-49 58-41v29" id="N"/><path fill="#333" d="M141-36C126-15 110 5 73 4 37 3 15-17 15-53c-1-64 63-63 125-63 3-35-9-54-41-54-24 1-41 7-42 31l-33-3c5-37 33-52 76-52 45 0 72 20 72 64v82c-1 20 7 32 28 27v20c-31 9-61-2-59-35zM48-53c0 20 12 33 32 33 41-3 63-29 60-74-43 2-92-5-92 41" id="O"/><path fill="#333" d="M115-194c53 0 69 39 70 98 0 66-23 100-70 100C84 3 66-7 56-30L54 0H23l1-261h32v101c10-23 28-34 59-34zm-8 174c40 0 45-34 45-75 0-40-5-75-45-74-42 0-51 32-51 76 0 43 10 73 51 73" id="P"/><path fill="#333" d="M24 0v-261h32V0H24" id="Q"/><path fill="#333" d="M106-169C34-169 62-67 57 0H25v-261h32l-1 103c12-21 28-36 61-36 89 0 53 116 60 194h-32v-121c2-32-8-49-39-48" id="R"/><path fill="#333" d="M100-194c62-1 85 37 85 99 1 63-27 99-86 99S16-35 15-95c0-66 28-99 85-99zM99-20c44 1 53-31 53-75 0-43-8-75-51-75s-53 32-53 75 10 74 51 75" id="S"/><g id="a"><use transform="matrix(0.05,0,0,0.05,0,0)" xlink:href="#M"/><use transform="matrix(0.05,0,0,0.05,10.3,0)" xlink:href="#N"/><use transform="matrix(0.05,0,0,0.05,16.25,0)" xlink:href="#O"/><use transform="matrix(0.05,0,0,0.05,26.25,0)" xlink:href="#P"/><use transform="matrix(0.05,0,0,0.05,36.25,0)" xlink:href="#O"/><use transform="matrix(0.05,0,0,0.05,46.25,0)" xlink:href="#Q"/><use transform="matrix(0.05,0,0,0.05,50.2,0)" xlink:href="#R"/><use transform="matrix(0.05,0,0,0.05,60.2,0)" xlink:href="#S"/></g><path fill="#333" d="M85-194c31 0 48 13 60 33l-1-100h32l1 261h-30c-2-10 0-23-3-31C134-8 116 4 85 4 32 4 16-35 15-94c0-66 23-100 70-100zm9 24c-40 0-46 34-46 75 0 40 6 74 45 74 42 0 51-32 51-76 0-42-9-74-50-73" id="T"/><path fill="#333" d="M100-194c63 0 86 42 84 106H49c0 40 14 67 53 68 26 1 43-12 49-29l28 8c-11 28-37 45-77 45C44 4 14-33 15-96c1-61 26-98 85-98zm52 81c6-60-76-77-97-28-3 7-6 17-6 28h103" id="U"/><g id="b"><use transform="matrix(0.05,0,0,0.05,0,0)" xlink:href="#T"/><use transform="matrix(0.05,0,0,0.05,10,0)" xlink:href="#U"/></g><path fill="#333" d="M212-179c-10-28-35-45-73-45-59 0-87 40-87 99 0 60 29 101 89 101 43 0 62-24 78-52l27 14C228-24 195 4 139 4 59 4 22-46 18-125c-6-104 99-153 187-111 19 9 31 26 39 46" id="V"/><path fill="#333" d="M117-194c89-4 53 116 60 194h-32v-121c0-31-8-49-39-48C34-167 62-67 57 0H25l-1-190h30c1 10-1 24 2 32 11-22 29-35 61-36" id="W"/><path fill="#333" d="M96-169c-40 0-48 33-48 73s9 75 48 75c24 0 41-14 43-38l32 2c-6 37-31 61-74 61-59 0-76-41-82-99-10-93 101-131 147-64 4 7 5 14 7 22l-32 3c-4-21-16-35-41-35" id="X"/><path fill="#333" d="M84 4C-5 8 30-112 23-190h32v120c0 31 7 50 39 49 72-2 45-101 50-169h31l1 190h-30c-1-10 1-25-2-33-11 22-28 36-60 37" id="Y"/><path fill="#333" d="M135-143c-3-34-86-38-87 0 15 53 115 12 119 90S17 21 10-45l28-5c4 36 97 45 98 0-10-56-113-15-118-90-4-57 82-63 122-42 12 7 21 19 24 35" id="Z"/><path fill="#333" d="M141-36C126-15 110 5 73 4 37 3 15-17 15-53c-1-64 63-63 125-63 3-35-9-54-41-54-24 1-41 7-42 31l-33-3c5-37 33-52 76-52 45 0 72 20 72 64v82c-1 20 7 32 28 27v20c-31 9-61-2-59-35zM48-53c0 20 12 33 32 33 41-3 63-29 60-74-43 2-92-5-92 41zm117-205c-3 23-9 48-36 47-26-1-65-44-74 0H39c4-23 8-48 36-47s64 44 74 0h16" id="aa"/><g id="c"><use transform="matrix(0.05,0,0,0.05,0,0)" xlink:href="#V"/><use transform="matrix(0.05,0,0,0.05,12.950000000000001,0)" xlink:href="#S"/><use transform="matrix(0.05,0,0,0.05,22.950000000000003,0)" xlink:href="#W"/><use transform="matrix(0.05,0,0,0.05,32.95,0)" xlink:href="#X"/><use transform="matrix(0.05,0,0,0.05,41.95,0)" xlink:href="#Q"/><use transform="matrix(0.05,0,0,0.05,45.900000000000006,0)" xlink:href="#Y"/><use transform="matrix(0.05,0,0,0.05,55.900000000000006,0)" xlink:href="#Z"/><use transform="matrix(0.05,0,0,0.05,64.9,0)" xlink:href="#aa"/><use transform="matrix(0.05,0,0,0.05,74.9,0)" xlink:href="#S"/></g><g id="d"><use transform="matrix(0.05,0,0,0.05,0,0)" xlink:href="#V"/><use transform="matrix(0.05,0,0,0.05,12.950000000000001,0)" xlink:href="#Y"/><use transform="matrix(0.05,0,0,0.05,22.950000000000003,0)" xlink:href="#N"/><use transform="matrix(0.05,0,0,0.05,28.900000000000002,0)" xlink:href="#Z"/><use transform="matrix(0.05,0,0,0.05,37.900000000000006,0)" xlink:href="#S"/></g><path fill="#333" d="M101-251c82-7 93 87 43 132L82-64C71-53 59-42 53-27h129V0H18c2-99 128-94 128-182 0-28-16-43-45-43s-46 15-49 41l-32-3c6-41 34-60 81-64" id="ab"/><use transform="matrix(0.05,0,0,0.05,0,0)" xlink:href="#ab" id="e"/><path fill="#333" d="M33 0v-248h34V0H33" id="ac"/><path fill="#333" d="M210-169c-67 3-38 105-44 169h-31v-121c0-29-5-50-35-48C34-165 62-65 56 0H25l-1-190h30c1 10-1 24 2 32 10-44 99-50 107 0 11-21 27-35 58-36 85-2 47 119 55 194h-31v-121c0-29-5-49-35-48" id="ad"/><path fill="#333" d="M115-194c55 1 70 41 70 98S169 2 115 4C84 4 66-9 55-30l1 105H24l-1-265h31l2 30c10-21 28-34 59-34zm-8 174c40 0 45-34 45-75s-6-73-45-74c-42 0-51 32-51 76 0 43 10 73 51 73" id="ae"/><path fill="#333" d="M59-47c-2 24 18 29 38 22v24C64 9 27 4 27-40v-127H5v-23h24l9-43h21v43h35v23H59v120" id="af"/><g id="f"><use transform="matrix(0.056172839506172835,0,0,0.056172839506172835,0,0)" xlink:href="#ac"/><use transform="matrix(0.056172839506172835,0,0,0.056172839506172835,5.617283950617283,0)" xlink:href="#ad"/><use transform="matrix(0.056172839506172835,0,0,0.056172839506172835,22.412962962962958,0)" xlink:href="#ae"/><use transform="matrix(0.056172839506172835,0,0,0.056172839506172835,33.64753086419752,0)" xlink:href="#Q"/><use transform="matrix(0.056172839506172835,0,0,0.056172839506172835,38.085185185185175,0)" xlink:href="#U"/><use transform="matrix(0.056172839506172835,0,0,0.056172839506172835,49.31975308641974,0)" xlink:href="#ad"/><use transform="matrix(0.056172839506172835,0,0,0.056172839506172835,66.11543209876541,0)" xlink:href="#U"/><use transform="matrix(0.056172839506172835,0,0,0.056172839506172835,77.34999999999998,0)" xlink:href="#W"/><use transform="matrix(0.056172839506172835,0,0,0.056172839506172835,88.58456790123455,0)" xlink:href="#af"/><use transform="matrix(0.056172839506172835,0,0,0.056172839506172835,94.20185185185183,0)" xlink:href="#O"/><use transform="matrix(0.056172839506172835,0,0,0.056172839506172835,105.4364197530864,0)" xlink:href="#N"/></g><path fill="#333" d="M205 0l-28-72H64L36 0H1l101-248h38L239 0h-34zm-38-99l-47-123c-12 45-31 82-46 123h93" id="ag"/><path fill="#333" d="M24-231v-30h32v30H24zM-9 49c24 4 33-6 33-30v-209h32V24c2 40-23 58-65 49V49" id="ah"/><g id="g"><use transform="matrix(0.056172839506172835,0,0,0.056172839506172835,0,0)" xlink:href="#ag"/><use transform="matrix(0.056172839506172835,0,0,0.056172839506172835,13.481481481481481,0)" xlink:href="#ah"/><use transform="matrix(0.056172839506172835,0,0,0.056172839506172835,17.919135802469135,0)" xlink:href="#Y"/><use transform="matrix(0.056172839506172835,0,0,0.056172839506172835,29.1537037037037,0)" xlink:href="#Z"/><use transform="matrix(0.056172839506172835,0,0,0.056172839506172835,39.26481481481481,0)" xlink:href="#af"/><use transform="matrix(0.056172839506172835,0,0,0.056172839506172835,44.8820987654321,0)" xlink:href="#U"/><use transform="matrix(0.056172839506172835,0,0,0.056172839506172835,56.11666666666666,0)" xlink:href="#Z"/></g><path fill="#333" d="M34 0v-190h32V0H34zM24-211c8-23 27-35 38-54h36v5l-58 49H24" id="ai"/><path fill="#333" d="M24-231v-30h32v30H24zM24 0v-190h32V0H24" id="aj"/><g id="h"><use transform="matrix(0.05,0,0,0.05,0,0)" xlink:href="#ac"/><use transform="matrix(0.05,0,0,0.05,5,0)" xlink:href="#W"/><use transform="matrix(0.05,0,0,0.05,15,0)" xlink:href="#ai"/><use transform="matrix(0.05,0,0,0.05,20,0)" xlink:href="#X"/><use transform="matrix(0.05,0,0,0.05,29,0)" xlink:href="#aj"/><use transform="matrix(0.05,0,0,0.05,32.95,0)" xlink:href="#S"/></g><path fill="#333" d="M233-177c-1 41-23 64-60 70L243 0h-38l-65-103H63V0H30v-248c88 3 205-21 203 71zM63-129c60-2 137 13 137-47 0-61-80-42-137-45v92" id="ak"/><path fill="#333" d="M9 0v-24l116-142H16v-24h144v24L44-24h123V0H9" id="al"/><path fill="#333" d="M96-169c-40 0-48 33-48 73s9 75 48 75c24 0 41-14 43-38l32 2c-6 37-31 61-74 61-59 0-76-41-82-99-10-93 101-131 147-64 4 7 5 14 7 22l-32 3c-4-21-16-35-41-35zm3 187c19-1 33 8 33 26 0 31-30 33-64 32V58c18 2 39 4 41-13 1-15-18-13-34-13L87 0h19" id="am"/><g id="i"><use transform="matrix(0.056172839506172835,0,0,0.056172839506172835,0,0)" xlink:href="#ak"/><use transform="matrix(0.056172839506172835,0,0,0.056172839506172835,14.548765432098763,0)" xlink:href="#U"/><use transform="matrix(0.056172839506172835,0,0,0.056172839506172835,25.78333333333333,0)" xlink:href="#O"/><use transform="matrix(0.056172839506172835,0,0,0.056172839506172835,37.0179012345679,0)" xlink:href="#Q"/><use transform="matrix(0.056172839506172835,0,0,0.056172839506172835,41.455555555555556,0)" xlink:href="#aj"/><use transform="matrix(0.056172839506172835,0,0,0.056172839506172835,45.89320987654321,0)" xlink:href="#al"/><use transform="matrix(0.056172839506172835,0,0,0.056172839506172835,56.004320987654324,0)" xlink:href="#O"/><use transform="matrix(0.056172839506172835,0,0,0.056172839506172835,67.2388888888889,0)" xlink:href="#am"/><use transform="matrix(0.056172839506172835,0,0,0.056172839506172835,77.35000000000001,0)" xlink:href="#aa"/><use transform="matrix(0.056172839506172835,0,0,0.056172839506172835,88.58456790123458,0)" xlink:href="#S"/></g><g id="j"><use transform="matrix(0.056172839506172835,0,0,0.056172839506172835,0,0)" xlink:href="#T"/><use transform="matrix(0.056172839506172835,0,0,0.056172839506172835,11.234567901234566,0)" xlink:href="#O"/><use transform="matrix(0.056172839506172835,0,0,0.056172839506172835,22.469135802469133,0)" xlink:href="#Z"/></g><path fill="#333" d="M108 0H70L1-190h34L89-25l56-165h34" id="an"/><g id="k"><use transform="matrix(0.056172839506172835,0,0,0.056172839506172835,0,0)" xlink:href="#ag"/><use transform="matrix(0.056172839506172835,0,0,0.056172839506172835,13.481481481481481,0)" xlink:href="#af"/><use transform="matrix(0.056172839506172835,0,0,0.056172839506172835,19.098765432098766,0)" xlink:href="#aj"/><use transform="matrix(0.056172839506172835,0,0,0.056172839506172835,23.53641975308642,0)" xlink:href="#an"/><use transform="matrix(0.056172839506172835,0,0,0.056172839506172835,33.647530864197535,0)" xlink:href="#aj"/><use transform="matrix(0.056172839506172835,0,0,0.056172839506172835,38.08518518518519,0)" xlink:href="#T"/><use transform="matrix(0.056172839506172835,0,0,0.056172839506172835,49.31975308641975,0)" xlink:href="#O"/><use transform="matrix(0.056172839506172835,0,0,0.056172839506172835,60.554320987654314,0)" xlink:href="#T"/><use transform="matrix(0.056172839506172835,0,0,0.056172839506172835,71.78888888888889,0)" xlink:href="#U"/><use transform="matrix(0.056172839506172835,0,0,0.056172839506172835,83.02345679012346,0)" xlink:href="#Z"/></g><g id="l"><use transform="matrix(0.056172839506172835,0,0,0.056172839506172835,0,0)" xlink:href="#T"/><use transform="matrix(0.056172839506172835,0,0,0.056172839506172835,11.234567901234566,0)" xlink:href="#U"/></g><path fill="#333" d="M30-248c118-7 216 8 213 122C240-48 200 0 122 0H30v-248zM63-27c89 8 146-16 146-99s-60-101-146-95v194" id="ao"/><g id="m"><use transform="matrix(0.056172839506172835,0,0,0.056172839506172835,0,0)" xlink:href="#ao"/><use transform="matrix(0.056172839506172835,0,0,0.056172839506172835,14.548765432098763,0)" xlink:href="#U"/><use transform="matrix(0.056172839506172835,0,0,0.056172839506172835,25.78333333333333,0)" xlink:href="#Z"/><use transform="matrix(0.056172839506172835,0,0,0.056172839506172835,35.894444444444446,0)" xlink:href="#U"/><use transform="matrix(0.056172839506172835,0,0,0.056172839506172835,47.129012345679016,0)" xlink:href="#W"/><use transform="matrix(0.056172839506172835,0,0,0.056172839506172835,58.363580246913585,0)" xlink:href="#an"/><use transform="matrix(0.056172839506172835,0,0,0.056172839506172835,68.4746913580247,0)" xlink:href="#S"/><use transform="matrix(0.056172839506172835,0,0,0.056172839506172835,79.70925925925927,0)" xlink:href="#Q"/><use transform="matrix(0.056172839506172835,0,0,0.056172839506172835,84.14691358024692,0)" xlink:href="#an"/><use transform="matrix(0.056172839506172835,0,0,0.056172839506172835,94.25802469135803,0)" xlink:href="#aj"/><use transform="matrix(0.056172839506172835,0,0,0.056172839506172835,98.69567901234568,0)" xlink:href="#ad"/><use transform="matrix(0.056172839506172835,0,0,0.056172839506172835,115.49135802469135,0)" xlink:href="#U"/><use transform="matrix(0.056172839506172835,0,0,0.056172839506172835,126.72592592592592,0)" xlink:href="#W"/><use transform="matrix(0.056172839506172835,0,0,0.056172839506172835,137.9604938271605,0)" xlink:href="#af"/><use transform="matrix(0.056172839506172835,0,0,0.056172839506172835,143.57777777777778,0)" xlink:href="#S"/></g><g id="n"><use transform="matrix(0.056172839506172835,0,0,0.056172839506172835,0,0)" xlink:href="#T"/><use transform="matrix(0.056172839506172835,0,0,0.056172839506172835,11.234567901234566,0)" xlink:href="#O"/></g><path fill="#333" d="M141-36C126-15 110 5 73 4 37 3 15-17 15-53c-1-64 63-63 125-63 3-35-9-54-41-54-24 1-41 7-42 31l-33-3c5-37 33-52 76-52 45 0 72 20 72 64v82c-1 20 7 32 28 27v20c-31 9-61-2-59-35zM48-53c0 20 12 33 32 33 41-3 63-29 60-74-43 2-92-5-92 41zm25-158c8-23 27-35 38-54h36v5l-58 49H73" id="ap"/><g id="o"><use transform="matrix(0.056172839506172835,0,0,0.056172839506172835,0,0)" xlink:href="#ag"/><use transform="matrix(0.056172839506172835,0,0,0.056172839506172835,13.481481481481481,0)" xlink:href="#W"/><use transform="matrix(0.056172839506172835,0,0,0.056172839506172835,24.716049382716047,0)" xlink:href="#ap"/><use transform="matrix(0.056172839506172835,0,0,0.056172839506172835,35.95061728395061,0)" xlink:href="#Q"/><use transform="matrix(0.056172839506172835,0,0,0.056172839506172835,40.38827160493827,0)" xlink:href="#aj"/><use transform="matrix(0.056172839506172835,0,0,0.056172839506172835,44.82592592592592,0)" xlink:href="#Z"/><use transform="matrix(0.056172839506172835,0,0,0.056172839506172835,54.93703703703703,0)" xlink:href="#U"/></g><g id="p"><use transform="matrix(0.056172839506172835,0,0,0.056172839506172835,0,0)" xlink:href="#T"/><use transform="matrix(0.056172839506172835,0,0,0.056172839506172835,11.234567901234566,0)" xlink:href="#U"/></g><g id="q"><use transform="matrix(0.056172839506172835,0,0,0.056172839506172835,0,0)" xlink:href="#ak"/><use transform="matrix(0.056172839506172835,0,0,0.056172839506172835,14.548765432098763,0)" xlink:href="#U"/><use transform="matrix(0.056172839506172835,0,0,0.056172839506172835,25.78333333333333,0)" xlink:href="#Z"/><use transform="matrix(0.056172839506172835,0,0,0.056172839506172835,35.894444444444446,0)" xlink:href="#Y"/><use transform="matrix(0.056172839506172835,0,0,0.056172839506172835,47.129012345679016,0)" xlink:href="#Q"/><use transform="matrix(0.056172839506172835,0,0,0.056172839506172835,51.56666666666667,0)" xlink:href="#af"/><use transform="matrix(0.056172839506172835,0,0,0.056172839506172835,57.183950617283955,0)" xlink:href="#O"/><use transform="matrix(0.056172839506172835,0,0,0.056172839506172835,68.41851851851852,0)" xlink:href="#T"/><use transform="matrix(0.056172839506172835,0,0,0.056172839506172835,79.6530864197531,0)" xlink:href="#S"/><use transform="matrix(0.056172839506172835,0,0,0.056172839506172835,90.88765432098766,0)" xlink:href="#Z"/></g><path fill="#333" d="M63-220v92h138v28H63V0H30v-248h175v28H63" id="aq"/><g id="r"><use transform="matrix(0.056172839506172835,0,0,0.056172839506172835,0,0)" xlink:href="#aq"/><use transform="matrix(0.056172839506172835,0,0,0.056172839506172835,12.30185185185185,0)" xlink:href="#aj"/><use transform="matrix(0.056172839506172835,0,0,0.056172839506172835,16.739506172839505,0)" xlink:href="#W"/><use transform="matrix(0.056172839506172835,0,0,0.056172839506172835,27.97407407407407,0)" xlink:href="#O"/><use transform="matrix(0.056172839506172835,0,0,0.056172839506172835,39.20864197530864,0)" xlink:href="#Q"/><use transform="matrix(0.056172839506172835,0,0,0.056172839506172835,43.64629629629629,0)" xlink:href="#aj"/><use transform="matrix(0.056172839506172835,0,0,0.056172839506172835,48.083950617283946,0)" xlink:href="#al"/><use transform="matrix(0.056172839506172835,0,0,0.056172839506172835,58.19506172839505,0)" xlink:href="#O"/><use transform="matrix(0.056172839506172835,0,0,0.056172839506172835,69.42962962962963,0)" xlink:href="#N"/></g><use transform="matrix(0.056172839506172835,0,0,0.056172839506172835,0,0)" xlink:href="#O" id="s"/><path fill="#333" d="M240 0l2-218c-23 76-54 145-80 218h-23L58-218 59 0H30v-248h44l77 211c21-75 51-140 76-211h43V0h-30" id="ar"/><path fill="#333" d="M177-190C167-65 218 103 67 71c-23-6-38-20-44-43l32-5c15 47 100 32 89-28v-30C133-14 115 1 83 1 29 1 15-40 15-95c0-56 16-97 71-98 29-1 48 16 59 35 1-10 0-23 2-32h30zM94-22c36 0 50-32 50-73 0-42-14-75-50-75-39 0-46 34-46 75s6 73 46 73" id="as"/><path fill="#333" d="M101-234c-31-9-42 10-38 44h38v23H63V0H32v-167H5v-23h27c-7-52 17-82 69-68v24" id="at"/><g id="t"><use transform="matrix(0.056172839506172835,0,0,0.056172839506172835,0,0)" xlink:href="#ar"/><use transform="matrix(0.056172839506172835,0,0,0.056172839506172835,16.795679012345676,0)" xlink:href="#S"/><use transform="matrix(0.056172839506172835,0,0,0.056172839506172835,28.030246913580243,0)" xlink:href="#W"/><use transform="matrix(0.056172839506172835,0,0,0.056172839506172835,39.26481481481481,0)" xlink:href="#S"/><use transform="matrix(0.056172839506172835,0,0,0.056172839506172835,50.49938271604938,0)" xlink:href="#as"/><use transform="matrix(0.056172839506172835,0,0,0.056172839506172835,61.73395061728396,0)" xlink:href="#N"/><use transform="matrix(0.056172839506172835,0,0,0.056172839506172835,68.41851851851852,0)" xlink:href="#O"/><use transform="matrix(0.056172839506172835,0,0,0.056172839506172835,79.6530864197531,0)" xlink:href="#at"/><use transform="matrix(0.056172839506172835,0,0,0.056172839506172835,85.27037037037037,0)" xlink:href="#aj"/><use transform="matrix(0.056172839506172835,0,0,0.056172839506172835,89.70802469135802,0)" xlink:href="#O"/></g><g id="u"><use transform="matrix(0.056172839506172835,0,0,0.056172839506172835,0,0)" xlink:href="#ag"/><use transform="matrix(0.056172839506172835,0,0,0.056172839506172835,13.481481481481481,0)" xlink:href="#ae"/><use transform="matrix(0.056172839506172835,0,0,0.056172839506172835,24.716049382716047,0)" xlink:href="#N"/><use transform="matrix(0.056172839506172835,0,0,0.056172839506172835,31.400617283950616,0)" xlink:href="#U"/><use transform="matrix(0.056172839506172835,0,0,0.056172839506172835,42.63518518518518,0)" xlink:href="#Z"/><use transform="matrix(0.056172839506172835,0,0,0.056172839506172835,52.74629629629629,0)" xlink:href="#U"/><use transform="matrix(0.056172839506172835,0,0,0.056172839506172835,63.980864197530856,0)" xlink:href="#W"/><use transform="matrix(0.056172839506172835,0,0,0.056172839506172835,75.21543209876543,0)" xlink:href="#af"/><use transform="matrix(0.056172839506172835,0,0,0.056172839506172835,80.83271604938271,0)" xlink:href="#O"/><use transform="matrix(0.056172839506172835,0,0,0.056172839506172835,92.06728395061728,0)" xlink:href="#N"/></g><use transform="matrix(0.056172839506172835,0,0,0.056172839506172835,0,0)" xlink:href="#S" id="v"/><g id="w"><use transform="matrix(0.056172839506172835,0,0,0.056172839506172835,0,0)" xlink:href="#M"/><use transform="matrix(0.056172839506172835,0,0,0.056172839506172835,12.30185185185185,0)" xlink:href="#V"/><use transform="matrix(0.056172839506172835,0,0,0.056172839506172835,26.850617283950612,0)" xlink:href="#V"/><use transform="matrix(0.056172839506172835,0,0,0.056172839506172835,41.399382716049374,0)" xlink:href="#ab"/></g><g id="x"><use transform="matrix(0.05,0,0,0.05,0,0)" xlink:href="#aq"/><use transform="matrix(0.05,0,0,0.05,10.950000000000001,0)" xlink:href="#aj"/><use transform="matrix(0.05,0,0,0.05,14.9,0)" xlink:href="#ad"/></g><g id="z"><use transform="matrix(0.05,0,0,0.05,0,0)" xlink:href="#aq"/><use transform="matrix(0.05,0,0,0.05,10.950000000000001,0)" xlink:href="#Y"/><use transform="matrix(0.05,0,0,0.05,20.950000000000003,0)" xlink:href="#af"/><use transform="matrix(0.05,0,0,0.05,25.950000000000003,0)" xlink:href="#Y"/><use transform="matrix(0.05,0,0,0.05,35.95,0)" xlink:href="#N"/><use transform="matrix(0.05,0,0,0.05,41.900000000000006,0)" xlink:href="#S"/></g><path fill="#333" d="M33 0v-38h34V0H33" id="au"/><g id="A"><use transform="matrix(0.05,0,0,0.05,0,0)" xlink:href="#V"/><use transform="matrix(0.05,0,0,0.05,12.950000000000001,0)" xlink:href="#O"/><use transform="matrix(0.05,0,0,0.05,22.950000000000003,0)" xlink:href="#ae"/><use transform="matrix(0.05,0,0,0.05,32.95,0)" xlink:href="#au"/></g><path fill="#333" d="M110-160c48 1 74 30 74 79 0 53-28 85-80 85-65 0-83-55-86-122-5-90 50-162 133-122 14 7 22 21 27 39l-31 6c-5-40-67-38-82-6-9 19-15 44-15 74 11-20 30-34 60-33zm-7 138c34 0 49-23 49-58s-16-56-50-56c-29 0-50 16-49 49 1 36 15 65 50 65" id="av"/><use transform="matrix(0.05,0,0,0.05,0,0)" xlink:href="#av" id="B"/><path fill="#333" d="M87 75C49 33 22-17 22-94c0-76 28-126 65-167h31c-38 41-64 92-64 168S80 34 118 75H87" id="aw"/><g id="C"><use transform="matrix(0.05,0,0,0.05,0,0)" xlink:href="#aw"/><use transform="matrix(0.05,0,0,0.05,5.95,0)" xlink:href="#ar"/><use transform="matrix(0.05,0,0,0.05,20.900000000000002,0)" xlink:href="#S"/><use transform="matrix(0.05,0,0,0.05,30.900000000000002,0)" xlink:href="#W"/><use transform="matrix(0.05,0,0,0.05,40.900000000000006,0)" xlink:href="#S"/><use transform="matrix(0.05,0,0,0.05,50.900000000000006,0)" xlink:href="#as"/><use transform="matrix(0.05,0,0,0.05,60.900000000000006,0)" xlink:href="#N"/><use transform="matrix(0.05,0,0,0.05,66.85000000000001,0)" xlink:href="#O"/><use transform="matrix(0.05,0,0,0.05,76.85000000000001,0)" xlink:href="#at"/><use transform="matrix(0.05,0,0,0.05,81.85000000000001,0)" xlink:href="#aj"/><use transform="matrix(0.05,0,0,0.05,85.80000000000001,0)" xlink:href="#O"/></g><path fill="#333" d="M30 0v-248h187v28H63v79h144v27H63v87h162V0H30" id="ax"/><g id="D"><use transform="matrix(0.05,0,0,0.05,0,0)" xlink:href="#ax"/><use transform="matrix(0.05,0,0,0.05,12,0)" xlink:href="#af"/><use transform="matrix(0.05,0,0,0.05,17,0)" xlink:href="#O"/><use transform="matrix(0.05,0,0,0.05,27,0)" xlink:href="#ae"/><use transform="matrix(0.05,0,0,0.05,37,0)" xlink:href="#O"/></g><path fill="#333" d="M33-261c38 41 65 92 65 168S71 34 33 75H2C39 34 66-17 66-93S39-220 2-261h31" id="ay"/><g id="E"><use transform="matrix(0.05,0,0,0.05,0,0)" xlink:href="#ab"/><use transform="matrix(0.05,0,0,0.05,10,0)" xlink:href="#ay"/></g><g id="F"><use transform="matrix(0.05,0,0,0.05,0,0)" xlink:href="#ar"/><use transform="matrix(0.05,0,0,0.05,14.950000000000001,0)" xlink:href="#S"/><use transform="matrix(0.05,0,0,0.05,24.950000000000003,0)" xlink:href="#W"/><use transform="matrix(0.05,0,0,0.05,34.95,0)" xlink:href="#S"/><use transform="matrix(0.05,0,0,0.05,44.95,0)" xlink:href="#as"/><use transform="matrix(0.05,0,0,0.05,54.95,0)" xlink:href="#N"/><use transform="matrix(0.05,0,0,0.05,60.900000000000006,0)" xlink:href="#O"/><use transform="matrix(0.05,0,0,0.05,70.9,0)" xlink:href="#at"/><use transform="matrix(0.05,0,0,0.05,75.9,0)" xlink:href="#aj"/><use transform="matrix(0.05,0,0,0.05,79.85000000000001,0)" xlink:href="#O"/></g><g id="G"><use transform="matrix(0.05,0,0,0.05,0,0)" xlink:href="#aq"/><use transform="matrix(0.05,0,0,0.05,10.950000000000001,0)" xlink:href="#aj"/><use transform="matrix(0.05,0,0,0.05,14.9,0)" xlink:href="#W"/><use transform="matrix(0.05,0,0,0.05,24.900000000000002,0)" xlink:href="#O"/><use transform="matrix(0.05,0,0,0.05,34.900000000000006,0)" xlink:href="#Q"/></g><g id="H"><use transform="matrix(0.05,0,0,0.05,0,0)" xlink:href="#ar"/><use transform="matrix(0.05,0,0,0.05,14.950000000000001,0)" xlink:href="#U"/><use transform="matrix(0.05,0,0,0.05,24.950000000000003,0)" xlink:href="#af"/><use transform="matrix(0.05,0,0,0.05,29.950000000000003,0)" xlink:href="#S"/><use transform="matrix(0.05,0,0,0.05,39.95,0)" xlink:href="#T"/><use transform="matrix(0.05,0,0,0.05,49.95,0)" xlink:href="#S"/><use transform="matrix(0.05,0,0,0.05,59.95,0)" xlink:href="#Q"/><use transform="matrix(0.05,0,0,0.05,63.900000000000006,0)" xlink:href="#S"/><use transform="matrix(0.05,0,0,0.05,73.9,0)" xlink:href="#as"/><use transform="matrix(0.05,0,0,0.05,83.9,0)" xlink:href="#aj"/><use transform="matrix(0.05,0,0,0.05,87.85000000000001,0)" xlink:href="#O"/></g><g id="I"><use transform="matrix(0.05,0,0,0.05,0,0)" xlink:href="#ao"/><use transform="matrix(0.05,0,0,0.05,12.950000000000001,0)" xlink:href="#U"/><use transform="matrix(0.05,0,0,0.05,22.950000000000003,0)" xlink:href="#Z"/><use transform="matrix(0.05,0,0,0.05,31.950000000000003,0)" xlink:href="#U"/><use transform="matrix(0.05,0,0,0.05,41.95,0)" xlink:href="#W"/><use transform="matrix(0.05,0,0,0.05,51.95,0)" xlink:href="#an"/><use transform="matrix(0.05,0,0,0.05,60.95,0)" xlink:href="#S"/><use transform="matrix(0.05,0,0,0.05,70.95,0)" xlink:href="#Q"/><use transform="matrix(0.05,0,0,0.05,74.9,0)" xlink:href="#an"/><use transform="matrix(0.05,0,0,0.05,83.9,0)" xlink:href="#aj"/><use transform="matrix(0.05,0,0,0.05,87.85000000000001,0)" xlink:href="#ad"/><use transform="matrix(0.05,0,0,0.05,102.80000000000001,0)" xlink:href="#U"/><use transform="matrix(0.05,0,0,0.05,112.80000000000001,0)" xlink:href="#W"/><use transform="matrix(0.05,0,0,0.05,122.80000000000001,0)" xlink:href="#af"/><use transform="matrix(0.05,0,0,0.05,127.80000000000001,0)" xlink:href="#S"/></g><path fill="#333" d="M54-142c48-35 137-8 131 61C196 18 31 33 14-55l32-4c7 23 22 37 52 37 35-1 51-22 54-58 4-55-73-65-99-34H22l8-134h141v27H59" id="az"/><use transform="matrix(0.05,0,0,0.05,0,0)" xlink:href="#az" id="J"/><g id="K"><use transform="matrix(0.05,0,0,0.05,0,0)" xlink:href="#ag"/><use transform="matrix(0.05,0,0,0.05,12,0)" xlink:href="#W"/><use transform="matrix(0.05,0,0,0.05,22,0)" xlink:href="#ap"/><use transform="matrix(0.05,0,0,0.05,32,0)" xlink:href="#Q"/><use transform="matrix(0.05,0,0,0.05,35.95,0)" xlink:href="#aj"/><use transform="matrix(0.05,0,0,0.05,39.900000000000006,0)" xlink:href="#Z"/><use transform="matrix(0.05,0,0,0.05,48.900000000000006,0)" xlink:href="#U"/></g><g id="L"><use transform="matrix(0.05,0,0,0.05,0,0)" xlink:href="#ak"/><use transform="matrix(0.05,0,0,0.05,12.950000000000001,0)" xlink:href="#U"/><use transform="matrix(0.05,0,0,0.05,22.950000000000003,0)" xlink:href="#Z"/><use transform="matrix(0.05,0,0,0.05,31.950000000000003,0)" xlink:href="#Y"/><use transform="matrix(0.05,0,0,0.05,41.95,0)" xlink:href="#Q"/><use transform="matrix(0.05,0,0,0.05,45.900000000000006,0)" xlink:href="#af"/><use transform="matrix(0.05,0,0,0.05,50.900000000000006,0)" xlink:href="#au"/></g></defs></g></svg>