<svg xmlns="http://www.w3.org/2000/svg" xmlns:xlink="http://www.w3.org/1999/xlink" xmlns:lucid="lucid" width="1555.73" height="1282.41"><g transform="translate(-121.12915916529585 -50.5)" lucid:page-tab-id="VjMd39PQffTe"><path d="M181.63 1312.4h-32a8 8 0 0 1-8-8V79a8 8 0 0 1 8-8h32z" stroke="#333" fill="#d0cee2"/><path d="M181.63 71h1466.73a8 8 0 0 1 8 8v1225.4a8 8 0 0 1-8 8H181.63z" stroke="#333" fill="none"/><use xlink:href="#a" transform="matrix(-1.8369701987210297e-16,-1,1,-1.8369701987210297e-16,141.62915916529596,1312.4097774423085) translate(482 23.6)"/><use xlink:href="#b" transform="matrix(-1.8369701987210297e-16,-1,1,-1.8369701987210297e-16,141.62915916529596,1312.4097774423085) translate(557.2 23.6)"/><use xlink:href="#c" transform="matrix(-1.8369701987210297e-16,-1,1,-1.8369701987210297e-16,141.62915916529596,1312.4097774423085) translate(582.2 23.6)"/><use xlink:href="#b" transform="matrix(-1.8369701987210297e-16,-1,1,-1.8369701987210297e-16,141.62915916529596,1312.4097774423085) translate(672.1 23.6)"/><use xlink:href="#d" transform="matrix(-1.8369701987210297e-16,-1,1,-1.8369701987210297e-16,141.62915916529596,1312.4097774423085) translate(697.1 23.6)"/><use xlink:href="#e" transform="matrix(-1.8369701987210297e-16,-1,1,-1.8369701987210297e-16,141.62915916529596,1312.4097774423085) translate(750 23.6)"/><path d="M417.75 195.62a8 8 0 0 1 8-8h144a8 8 0 0 1 8 8v47.32a8 8 0 0 1-8 8h-144a8 8 0 0 1-8-8z" stroke="#333" fill="#d0cee2"/><use xlink:href="#f" transform="matrix(1,0,0,1,417.75050761490917,187.61767740309767) translate(15.013024691358035 36.17777777777778)"/><use xlink:href="#g" transform="matrix(1,0,0,1,417.75050761490917,187.61767740309767) translate(78.82537037037038 36.17777777777778)"/><use xlink:href="#h" transform="matrix(1,0,0,1,417.75050761490917,187.61767740309767) translate(95.67722222222223 36.17777777777778)"/><path d="M324.18 219.28c0 16.57-13.44 30-30 30-16.57 0-30-13.43-30-30s13.43-30 30-30c16.56 0 30 13.43 30 30z" stroke="#333" fill="#d0cee2"/><use xlink:href="#i" transform="matrix(1,0,0,1,264.1749158418044,251.27740133671801) translate(8.524999999999999 14.4)"/><path d="M397.75 329.08a8 8 0 0 1 8-8h184a8 8 0 0 1 8 8v97.33a8 8 0 0 1-8 8h-184a8 8 0 0 1-8-8z" stroke="#333" fill="#d0cee2"/><path d="M482.75 393.28h30v30h-30zm15 5.4v19.2m-9.6-9.6h19.2" stroke="#333" fill="none"/><use xlink:href="#j" transform="matrix(1,0,0,1,397.75050761490917,321.08084897813444) translate(15.296358024691367 33.99027777777778)"/><use xlink:href="#k" transform="matrix(1,0,0,1,397.75050761490917,321.08084897813444) translate(101.63401234567903 33.99027777777778)"/><use xlink:href="#l" transform="matrix(1,0,0,1,397.75050761490917,321.08084897813444) translate(45.096049382716046 58.25694444444444)"/><path d="M714.3 338.4a8 8 0 0 1 8-8h161.33a8 8 0 0 1 8 8v78.68a8 8 0 0 1-8 8H722.3a8 8 0 0 1-8-8z" stroke="#333" fill="#d0cee2"/><use xlink:href="#m" transform="matrix(1,0,0,1,714.295825831962,330.41418231146775) translate(48.20098765432098 39.92777777777778)"/><use xlink:href="#n" transform="matrix(1,0,0,1,714.295825831962,330.41418231146775) translate(19.524753086419757 64.19444444444444)"/><use xlink:href="#o" transform="matrix(1,0,0,1,714.295825831962,330.41418231146775) translate(105.97475308641975 64.19444444444444)"/><path d="M714.3 475.67a8 8 0 0 1 8-8h161.33a8 8 0 0 1 8 8v78.67a8 8 0 0 1-8 8H722.3a8 8 0 0 1-8-8z" stroke="#333" fill="#d0cee2"/><use xlink:href="#p" transform="matrix(1,0,0,1,714.295825831962,467.67121772888817) translate(23.990493827160485 39.92777777777778)"/><use xlink:href="#q" transform="matrix(1,0,0,1,714.295825831962,467.67121772888817) translate(141.78493827160494 39.92777777777778)"/><use xlink:href="#r" transform="matrix(1,0,0,1,714.295825831962,467.67121772888817) translate(33.53987654320988 64.19444444444444)"/><path d="M1327.7 473a8 8 0 0 1 8-8h194.65a8 8 0 0 1 8 8v84a8 8 0 0 1-8 8H1335.7a8 8 0 0 1-8-8z" stroke="#333" fill="#d0cee2"/><use xlink:href="#p" transform="matrix(1,0,0,1,1327.686629239398,465.00455106222137) translate(40.990493827160485 41.17777777777778)"/><use xlink:href="#s" transform="matrix(1,0,0,1,1327.686629239398,465.00455106222137) translate(158.78493827160494 41.17777777777778)"/><use xlink:href="#t" transform="matrix(1,0,0,1,1327.686629239398,465.00455106222137) translate(19.195432098765444 65.44444444444444)"/><use xlink:href="#u" transform="matrix(1,0,0,1,1327.686629239398,465.00455106222137) translate(126.82259259259258 65.44444444444444)"/><path d="M287.68 964.4a8 8 0 0 1 8-8H457a8 8 0 0 1 8 8v78.66a8 8 0 0 1-8 8H295.7a8 8 0 0 1-8-8z" stroke="#333" fill="#d0cee2"/><use xlink:href="#v" transform="matrix(1,0,0,1,287.6754828840594,956.3910229577721) translate(47.58308641975308 39.92777777777778)"/><use xlink:href="#q" transform="matrix(1,0,0,1,287.6754828840594,956.3910229577721) translate(118.19234567901235 39.92777777777778)"/><use xlink:href="#w" transform="matrix(1,0,0,1,287.6754828840594,956.3910229577721) translate(48.08864197530864 64.19444444444444)"/><path d="M591.2 959.72a8 8 0 0 1 8-8H805.9a8 8 0 0 1 8 8v88a8 8 0 0 1-8 8H599.2a8 8 0 0 1-8-8z" stroke="#333" fill="#d0cee2"/><use xlink:href="#x" transform="matrix(1,0,0,1,591.2099497538516,951.7243562911052) translate(38.059012345679015 45.70902777777778)"/><use xlink:href="#y" transform="matrix(1,0,0,1,591.2099497538516,951.7243562911052) translate(87.26641975308641 45.70902777777778)"/><use xlink:href="#z" transform="matrix(1,0,0,1,591.2099497538516,951.7243562911052) translate(104.11827160493826 45.70902777777778)"/><use xlink:href="#A" transform="matrix(1,0,0,1,591.2099497538516,951.7243562911052) translate(162.48185185185184 45.70902777777778)"/><use xlink:href="#B" transform="matrix(1,0,0,1,591.2099497538516,951.7243562911052) translate(43.11456790123457 69.97569444444444)"/><use xlink:href="#o" transform="matrix(1,0,0,1,591.2099497538516,951.7243562911052) translate(128.38493827160494 69.97569444444444)"/><path d="M908.78 959.72a8 8 0 0 1 8-8h206.67a8 8 0 0 1 8 8v88a8 8 0 0 1-8 8H916.78a8 8 0 0 1-8-8z" stroke="#333" fill="#d0cee2"/><use xlink:href="#C" transform="matrix(1,0,0,1,908.7797771393424,951.7243562911053) translate(52.04604938271604 45.70902777777778)"/><use xlink:href="#D" transform="matrix(1,0,0,1,908.7797771393424,951.7243562911053) translate(149.6182716049383 45.70902777777778)"/><use xlink:href="#E" transform="matrix(1,0,0,1,908.7797771393424,951.7243562911053) translate(22.33061728395061 69.97569444444444)"/><use xlink:href="#F" transform="matrix(1,0,0,1,908.7797771393424,951.7243562911053) translate(128.94666666666666 69.97569444444444)"/><path d="M1266.68 968.4a8 8 0 0 1 8-8h144a8 8 0 0 1 8 8v70.66a8 8 0 0 1-8 8h-144a8 8 0 0 1-8-8z" stroke="#333" fill="#d0cee2"/><use xlink:href="#G" transform="matrix(1,0,0,1,1266.6809271041723,960.3910229577721) translate(22.203148148148145 35.20902777777778)"/><use xlink:href="#s" transform="matrix(1,0,0,1,1266.6809271041723,960.3910229577721) translate(126.57228395061728 35.20902777777778)"/><use xlink:href="#H" transform="matrix(1,0,0,1,1266.6809271041723,960.3910229577721) translate(53.68802469135803 59.47569444444444)"/><path d="M1593.1 1003.72c0 16.57-13.43 30-30 30-16.56 0-30-13.43-30-30 0-16.56 13.44-30 30-30 16.57 0 30 13.44 30 30z" stroke="#56517e" stroke-width="5" fill="#d0cee2"/><use xlink:href="#I" transform="matrix(1,0,0,1,1533.10385037549,1035.7243562911053) translate(15.075 14.4)"/><path d="M325.18 219.28h75.7" stroke="#333" fill="none"/><path d="M325.2 219.78h-.56l.04-.5-.02-.5h.53z" stroke="#333" stroke-width=".05" fill="#333"/><path d="M415.63 219.28l-14.26 4.63v-9.26z" stroke="#333" fill="#333"/><path d="M497.75 251.94v52.26" stroke="#333" fill="none"/><path d="M498.25 251.95h-1v-.5h1z" stroke="#333" stroke-width=".05" fill="#333"/><path d="M497.75 318.96l-4.63-14.26h9.27z" stroke="#333" fill="#333"/><path d="M598.75 377.75h98.66" stroke="#333" fill="none"/><path d="M598.76 378.25h-.5v-1h.5z" stroke="#333" stroke-width=".05" fill="#333"/><path d="M712.18 377.75l-14.27 4.63v-9.27z" stroke="#333" fill="#333"/><path d="M976.65 626.3a8 8 0 0 1 8-8h206.66a8 8 0 0 1 8 8v84a8 8 0 0 1-8 8H984.66a8 8 0 0 1-8-8z" stroke="#333" fill="#d0cee2"/><use xlink:href="#J" transform="matrix(1,0,0,1,976.6470175045313,618.2952348056442) translate(11.601604938271615 41.17777777777778)"/><use xlink:href="#g" transform="matrix(1,0,0,1,976.6470175045313,618.2952348056442) translate(123.83493827160495 41.17777777777778)"/><use xlink:href="#K" transform="matrix(1,0,0,1,976.6470175045313,618.2952348056442) translate(140.6867901234568 41.17777777777778)"/><use xlink:href="#L" transform="matrix(1,0,0,1,976.6470175045313,618.2952348056442) translate(58.22506172839506 65.44444444444444)"/><path d="M1050.48 515l37.5-37.5 37.5 37.5-37.5 37.5z" stroke="#56517e" fill="#d0cee2"/><path d="M1087.98 492.5v45m-22.5-22.5h45" stroke="#56517e" fill="none"/><path d="M892.63 377.75h193.35a2 2 0 0 1 2 2v80.66" stroke="#333" fill="none"/><path d="M892.64 378.25h-.5v-1h.5z" stroke="#333" stroke-width=".05" fill="#333"/><path d="M1087.98 475.18l-4.63-14.27h9.27z" stroke="#333" fill="#333"/><path d="M1126.7 515h184.1" stroke="#333" fill="none"/><path d="M1126.7 515.5h-1l.5-.5-.5-.5h1z" stroke="#333" stroke-width=".05" fill="#333"/><path d="M1325.57 515l-14.27 4.64v-9.27z" stroke="#333" fill="#333"/><path d="M1087.98 553.7v47.7" stroke="#333" fill="none"/><path d="M1088.48 553.72h-1v-1l.5.5.5-.5z" stroke="#333" stroke-width=".05" fill="#333"/><path d="M1087.98 616.18l-4.63-14.27h9.27z" stroke="#333" fill="#333"/><path d="M1049.27 515H908.5" stroke="#333" fill="none"/><path d="M1049.77 515l.5.5h-1v-1h1z" stroke="#333" stroke-width=".05" fill="#333"/><path d="M893.75 515l14.26-4.63v9.27z" stroke="#333" fill="#333"/><path d="M1050.48 821.6l37.5-37.5 37.5 37.5-37.5 37.5z" stroke="#56517e" fill="#d0cee2"/><path d="M1087.98 799.1v45m-22.5-22.5h45" stroke="#56517e" fill="none"/><path d="M1087.98 719.3V767" stroke="#333" fill="none"/><path d="M1088.48 719.3h-1v-.5h1z" stroke="#333" stroke-width=".05" fill="#333"/><path d="M1087.98 781.76l-4.63-14.26h9.27z" stroke="#333" fill="#333"/><path d="M802.96 563.34V819.6a2 2 0 0 0 2 2h228.43" stroke="#333" fill="none"/><path d="M803.46 563.35h-1v-.5h1z" stroke="#333" stroke-width=".05" fill="#333"/><path d="M1048.15 821.6l-14.26 4.62v-9.27z" stroke="#333" fill="#333"/><path d="M1433.02 566v253.6a2 2 0 0 1-2 2h-288.45" stroke="#333" fill="none"/><path d="M1433.52 566.02h-1v-.5h1z" stroke="#333" stroke-width=".05" fill="#333"/><path d="M1127.8 821.6l14.27-4.65v9.27z" stroke="#333" fill="#333"/><path d="M1087.98 860.3v45.54a2 2 0 0 1-2 2H378.34a2 2 0 0 0-2 2v29.67" stroke="#333" fill="none"/><path d="M1087.98 859.8l.5-.5v1h-1v-1z" stroke="#333" stroke-width=".05" fill="#333"/><path d="M376.34 954.27L371.7 940H381z" stroke="#333" fill="#333"/><path d="M466 1003.72h108.33" stroke="#333" fill="none"/><path d="M466.02 1004.22h-.5v-1h.5z" stroke="#333" stroke-width=".05" fill="#333"/><path d="M589.1 1003.72l-14.27 4.64v-9.27z" stroke="#333" fill="#333"/><path d="M814.88 1003.72h77.02" stroke="#333" fill="none"/><path d="M814.9 1004.22h-.52v-1h.5z" stroke="#333" stroke-width=".05" fill="#333"/><path d="M906.66 1003.72l-14.26 4.64v-9.27z" stroke="#333" fill="#333"/><path d="M1132.45 1003.72h117.35" stroke="#333" fill="none"/><path d="M1132.46 1004.22h-.5v-1h.5z" stroke="#333" stroke-width=".05" fill="#333"/><path d="M1264.56 1003.72l-14.26 4.64v-9.27z" stroke="#333" fill="#333"/><path d="M1427.68 1003.72h86.54" stroke="#333" fill="none"/><path d="M1427.7 1004.22h-.52v-1h.5z" stroke="#333" stroke-width=".05" fill="#333"/><path d="M1528.98 1003.72l-14.26 4.64v-9.27z" stroke="#333" fill="#333"/><path d="M900.9 146.48l32.94 31.34v73.12h-82.38V146.48z" stroke="#333" fill="#fff"/><path d="M900.9 146.48v31.34h32.94" stroke="#333" fill="none"/><use xlink:href="#M" transform="matrix(1,0,0,1,851.4567527134698,250.93712527033836) translate(41.5 14.4)"/><use xlink:href="#N" transform="matrix(1,0,0,1,851.4567527134698,250.93712527033836) translate(0.5499999999999972 36)"/><use xlink:href="#e" transform="matrix(1,0,0,1,851.4567527134698,250.93712527033836) translate(72.45 36)"/><path d="M1248.74 189.28l32.96 31.33v73.13h-82.4V189.28z" stroke="#333" fill="#fff"/><path d="M1248.74 189.28v31.33h32.96" stroke="#333" fill="none"/><use xlink:href="#M" transform="matrix(1,0,0,1,1199.3136841711978,293.7300444570571) translate(41.5 14.4)"/><use xlink:href="#N" transform="matrix(1,0,0,1,1199.3136841711978,293.7300444570571) translate(0.5499999999999972 36)"/><use xlink:href="#O" transform="matrix(1,0,0,1,1199.3136841711978,293.7300444570571) translate(72.45 36)"/><path d="M1328.02 580.1l32.95 31.34v73.1h-82.38V580.1z" stroke="#333" fill="#fff"/><path d="M1328.02 580.1v31.34h32.95" stroke="#333" fill="none"/><use xlink:href="#M" transform="matrix(1,0,0,1,1278.5869751387331,684.5531395039286) translate(41.5 14.4)"/><use xlink:href="#N" transform="matrix(1,0,0,1,1278.5869751387331,684.5531395039286) translate(0.5499999999999972 36)"/><use xlink:href="#P" transform="matrix(1,0,0,1,1278.5869751387331,684.5531395039286) translate(72.45 36)"/><path d="M613.05 593.4L646 624.7v73.12h-82.38V593.4z" stroke="#333" fill="#fff"/><path d="M613.05 593.4v31.32H646" stroke="#333" fill="none"/><use xlink:href="#M" transform="matrix(1,0,0,1,563.6227494025338,697.8384170296152) translate(41.5 14.4)"/><use xlink:href="#N" transform="matrix(1,0,0,1,563.6227494025338,697.8384170296152) translate(0.5499999999999972 36)"/><use xlink:href="#Q" transform="matrix(1,0,0,1,563.6227494025338,697.8384170296152) translate(72.45 36)"/><path d="M530.67 1124.47l32.95 31.33v73.12h-82.38v-104.45z" stroke="#333" fill="#fff"/><path d="M530.67 1124.47v31.33h32.95" stroke="#333" fill="none"/><g><use xlink:href="#M" transform="matrix(1,0,0,1,481.2387406310762,1228.9183906832004) translate(41.5 14.4)"/><use xlink:href="#N" transform="matrix(1,0,0,1,481.2387406310762,1228.9183906832004) translate(0.5499999999999972 36)"/><use xlink:href="#R" transform="matrix(1,0,0,1,481.2387406310762,1228.9183906832004) translate(72.45 36)"/></g><path d="M1180.88 1124.47l32.95 31.33v73.12h-82.38v-104.45z" stroke="#333" fill="#fff"/><path d="M1180.88 1124.47v31.33h32.95" stroke="#333" fill="none"/><g><use xlink:href="#M" transform="matrix(1,0,0,1,1131.446443806009,1228.9183906832004) translate(41.5 14.4)"/><use xlink:href="#N" transform="matrix(1,0,0,1,1131.446443806009,1228.9183906832004) translate(0.5499999999999972 36)"/><use xlink:href="#S" transform="matrix(1,0,0,1,1131.446443806009,1228.9183906832004) translate(72.45 36)"/></g><path d="M1200.3 668.3h1.58m2.1 0h3.14m2.1 0h3.13m2.1 0h3.13m2.1 0h3.14m2.1 0h3.13m2.1 0h3.14m2.08 0h1.57l.3-.03.32-.07.3-.12.26-.17.23-.2.2-.23.17-.27.12-.3.08-.3.02-.3v-1.6m0-2.13v-3.2m0-2.13v-3.2m0-2.13v-3.2m0-2.12v-3.2m0-2.13v-3.2m0-2.13v-1.6l.02-.3.08-.3.12-.3.16-.27.2-.24.25-.2.26-.16.3-.12.3-.07.3-.02h1.57m2.08 0h3.12m2.07 0h3.1m2.1 0h3.1m2.08 0h1.55" stroke="#333" fill="none"/><path d="M1200.33 668.8h-.52v-1h.53z" stroke="#333" stroke-width=".05" fill="#333"/><path d="M1276.47 632.33l-14.27 4.63v-9.27z" stroke="#333" fill="#333"/><path d="M802.96 329.4v-1.47m0-1.98v-2.97m0-1.98v-2.97m0-1.98v-2.97m0-1.98v-2.97m0-1.98v-2.97m0-1.98v-2.97m0-1.98v-2.97m0-1.98v-2.97m0-1.98v-2.97m0-1.98v-2.97m0-1.98v-2.97m0-1.98v-2.97m0-1.98v-2.97m0-1.98v-2.97m0-1.98v-2.97m0-1.98v-2.97m0-1.98v-2.97m0-1.98v-2.97m0-1.98v-2.97m0-1.98v-2.97m0-1.98v-2.97m0-1.98v-2.97m0-1.98v-2.97m0-1.98v-2.97m0-1.98v-2.97m0-1.98v-1.5l.03-.3.06-.3.12-.3.16-.27.2-.23.25-.2.25-.17.3-.12.3-.06.3-.03h1.5m1.97 0h2.96m1.97 0h2.96m2 0h2.95m1.97 0h2.96m1.98 0h2.96m1.97 0h1.47" stroke="#333" fill="none"/><path d="M803.46 329.9h-1v-.5h1z" stroke="#333" stroke-width=".05" fill="#333"/><path d="M849.34 198.7l-14.27 4.65v-9.27z" stroke="#333" fill="#333"/><path d="M713.3 515h-1.56m-2.08 0h-3.1m-2.1 0h-3.1m-2.08 0h-3.1m-2.1 0H691m-2.08 0h-3.12m-2.07 0h-1.55l-.3.03-.32.07-.3.12-.25.17-.24.2-.2.23-.17.27-.12.3-.07.3-.03.3v1.52m0 2.03v3.04m0 2v3.05m0 2.03v3.04m0 2.02v3.04m0 2.03v3.05m0 2.02v3.04m0 2.03v3.04m0 2.03v3.04m0 2.02v3.04m0 2.03v3.04m0 2.02v3.03m0 2.03v3.03m0 2.02v3.04m0 2.02v3.04m0 2.03v3.04m0 2v3.05m0 2.03v3.04m0 2.02v3.04m0 2.03v3.05m0 2.02v3.04m0 2.04v3.03m0 2.03v3.04m0 2.02V635m0 2.03v3.04m0 2.02v1.5l-.02.32-.08.3-.12.3-.16.27-.2.23-.24.2-.27.16-.3.1-.3.1h-1.83m-2.04 0h-3.06m-2.04 0h-3.05m-2.03 0h-1.53" stroke="#333" fill="none"/><path d="M713.8 515.5h-.52v-1h.52z" stroke="#333" stroke-width=".05" fill="#333"/><path d="M648.13 645.6L662.4 641v9.27z" stroke="#333" fill="#333"/><path d="M1433.02 464v-1.5m0-2v-3m0-2v-3.02m0-2v-3m0-2.02v-3m0-2v-3.02m0-2v-3m0-2v-3.02m0-2v-3m0-2v-3.02m0-2v-3m0-2.02v-3m0-2v-3m0-2.02v-3m0-2v-3.02m0-2v-3m0-2v-3.02m0-2v-3m0-2.02v-3m0-2v-3m0-2.02v-3m0-2v-3.02m0-2v-3m0-2v-3.02m0-2v-3m0-2.02v-3m0-2v-3.02m0-2v-3m0-2v-3.02m0-2v-3m0-2v-3.02m0-2v-3m0-2.02v-3m0-2v-3m0-2.02v-3m0-2v-3.02m0-2v-3m0-2v-3.02m0-2v-3m0-2.02v-3m0-2v-3m0-2.02v-3m0-2V252m0-2v-3m0-2v-1.52l-.03-.3-.08-.3-.12-.3-.16-.27-.2-.24-.24-.2-.27-.18-.3-.12-.3-.07-.3-.03h-1.54m-2.05 0h-3.05m-2.04 0h-3.06m-2.03 0h-3.06m-2.03 0h-3.05m-2.04 0h-3.06m-2.04 0h-3.05m-2.04 0h-3.07m-2.03 0h-3.06m-2.04 0h-3.05m-2.04 0h-3.05m-2.03 0h-3.06m-2.04 0h-3.05m-2.04 0h-3.06m-2.04 0h-3.05m-2.04 0h-3.06m-2.03 0H1348m-2.05 0h-3.05m-2.04 0h-3.06m-2.03 0h-3.06m-2.03 0h-3.05m-2.04 0h-3.06m-2.04 0h-3.05m-2.04 0h-3.07m-2.03 0h-3.06m-2.04 0h-3.05m-2.04 0h-1.52" stroke="#333" fill="none"/><path d="M1433.52 464.5h-1v-.5h1z" stroke="#333" stroke-width=".05" fill="#333"/><path d="M1283.82 241.5l14.26-4.63v9.27z" stroke="#333" fill="#333"/><path d="M376.34 1052.06v1.47m0 1.96v2.93m0 1.97v2.94m0 1.96v2.94m0 1.97v2.95m0 1.96v2.96m0 1.96v2.94m0 1.96v2.95m0 1.96v2.94m0 1.96v2.95m0 1.96v2.94m0 1.97v2.94m0 1.95v2.94m0 1.96v2.94m0 1.96v2.94m0 1.97v2.94m0 1.97v2.95m0 1.96v2.94m0 1.96v2.95m0 1.96v2.93m0 1.96v2.94m0 1.96v2.94m0 1.96v2.95m0 1.96v2.95m0 1.97v2.94m0 1.96v1.47l.03.3.07.3.12.3.16.27.2.24.25.2.26.17.3.12.3.07.3.02h1.53m2.02 0h3.04m2.02 0h3.04m2.02 0h3.04m2.02 0h3.04m2.02 0h3.04m2.02 0h3.04m2.02 0h3.04m2.02 0h3.04m2.02 0h3.04m2.02 0h3.04m2.02 0h3.03m2.04 0h3.03m2.03 0h3.03m2.03 0h3.03m2.02 0h3.03m2.03 0h3.03m2.04 0h1.52" stroke="#333" fill="none"/><path d="M376.84 1052.07h-1v-.5h1z" stroke="#333" stroke-width=".05" fill="#333"/><path d="M479.12 1176.7l-14.26 4.63v-9.27z" stroke="#333" fill="#333"/><path d="M1020.1 1056.72v1.48m0 1.96v2.95m0 1.98v2.95m0 1.97v2.94m0 1.97v2.96m0 1.97v2.95m0 1.96v2.95m0 1.96v2.95m0 1.97v2.95m0 1.97v2.94m0 1.96v2.95m0 1.97v2.95m0 1.96v2.95m0 1.97v2.95m0 1.96v2.95m0 1.98v2.95m0 1.96v2.94m0 1.97v2.96m0 1.97v2.94m0 1.97v2.95m0 1.96v2.95m0 1.97v2.95m0 1.97v2.94m0 1.96v2.95m0 1.97v1.47l.04.3.07.3.13.3.16.27.2.24.24.2.26.17.3.12.3.07.3.02h1.55m2.06 0h3.1m2.04 0h3.1m2.04 0h3.08m2.06 0h3.08m2.05 0h3.08m2.06 0h3.07m2.06 0h3.08m2.06 0h3.08m2.06 0h3.08m2.05 0h3.1m2.04 0h3.08m2.05 0h3.1m2.04 0h3.08m2.06 0h3.08m2.05 0h3.1m2.05 0h3.08m2.06 0h3.07m2.05 0h1.54" stroke="#333" fill="none"/><path d="M1020.6 1056.74h-1v-.52h1z" stroke="#333" stroke-width=".05" fill="#333"/><path d="M1129.33 1176.7l-14.27 4.63v-9.27z" stroke="#333" fill="#333"/><path d="M271.06 325.52L304 356.86v73.1h-82.37V325.53z" stroke="#333" fill="#fff"/><path d="M271.06 325.52v31.34H304" stroke="#333" fill="none"/><g><use xlink:href="#M" transform="matrix(1,0,0,1,221.62915916529585,429.9738372049706) translate(41.5 14.4)"/><use xlink:href="#T" transform="matrix(1,0,0,1,221.62915916529585,429.9738372049706) translate(-7.425000000000004 36)"/><use xlink:href="#U" transform="matrix(1,0,0,1,221.62915916529585,429.9738372049706) translate(-8.450000000000003 57.6)"/></g><path d="M305 377.75h1.53m2.02 0h3.04m2 0h3.04m2.03 0h3.03m2.02 0h3.04m2.02 0h3.04m2.02 0h3.03m2.02 0h3.03m2.02 0H347m2 0h3.04m2.02 0h3.04m2.02 0h3.04m2.02 0h3.03m2.04 0h3.03m2.02 0h3.03m2.02 0h1.52" stroke="#333" fill="none"/><path d="M305.03 378.25h-.52v-1h.53z" stroke="#333" stroke-width=".05" fill="#333"/><path d="M395.63 377.75l-14.26 4.63v-9.27z" stroke="#333" fill="#333"/><path d="M323.53 541.6l32.95 31.32v73.12H274.1V541.6z" stroke="#333" fill="#fff"/><path d="M323.53 541.6v31.32h32.95" stroke="#333" fill="none"/><g><use xlink:href="#M" transform="matrix(1,0,0,1,274.10036082344595,646.0403214714294) translate(41.5 14.4)"/><use xlink:href="#V" transform="matrix(1,0,0,1,274.10036082344595,646.0403214714294) translate(-6.425000000000004 36)"/><use xlink:href="#W" transform="matrix(1,0,0,1,274.10036082344595,646.0403214714294) translate(-11.875000000000007 57.6)"/></g><path d="M497.75 435.4v1.53m0 2.02v3.02m0 2.02V447m0 2.02v3.02m0 2.02v3.03m0 2.03v3.02m0 2.02v3.03m0 2.02v3.02m0 2.02v3.03m0 2v3.03m0 2.02v3.03m0 2.02v3.02m0 2.02v3.03m0 2.02v3m0 2.03v3.03m0 2.02v3.03m0 2.02v3.03m0 2.02v3.03m0 2v3.04m0 2.02v3.03m0 2v3.03m0 2.02v3.03m0 2v3.04m0 2.02v3.03m0 2v3.04m0 2.03v3.03m0 2.02v3.02m0 2.02v3.03m0 2v3.04m0 2v3.04m0 2v3.04m0 2.02v1.5l-.02.33-.08.3-.12.3-.16.26-.2.23-.24.2-.27.17-.3.12-.3.07h-1.84m-2.04 0h-3.06m-2.04 0h-3.06m-2.04 0h-3.06m-2.04 0h-3.06m-2.04 0h-3.06m-2.04 0h-3.06m-2.04 0h-3.05m-2.04 0h-3.07m-2.04 0h-3.07m-2.04 0h-3.07m-2.04 0h-3.07m-2.04 0h-3.07m-2.04 0h-3.07m-2.04 0h-3.07m-2.04 0h-3.07m-2.04 0h-3.07m-2.04 0h-3.07m-2.04 0h-3.07m-2.04 0h-3.06m-2.04 0h-3.06m-2.04 0h-3.06m-2.04 0h-3.06m-2.04 0h-3.06m-2.04 0h-1.53" stroke="#333" fill="none"/><path d="M498.25 435.43h-1v-.52h1z" stroke="#333" stroke-width=".05" fill="#333"/><path d="M358.6 593.8l14.27-4.62v9.27z" stroke="#333" fill="#333"/><defs><path fill="#333" d="M127-220V0H93v-220H8v-28h204v28h-85" id="X"/><path fill="#333" d="M114-163C36-179 61-72 57 0H25l-1-190h30c1 12-1 29 2 39 6-27 23-49 58-41v29" id="Y"/><path fill="#333" d="M141-36C126-15 110 5 73 4 37 3 15-17 15-53c-1-64 63-63 125-63 3-35-9-54-41-54-24 1-41 7-42 31l-33-3c5-37 33-52 76-52 45 0 72 20 72 64v82c-1 20 7 32 28 27v20c-31 9-61-2-59-35zM48-53c0 20 12 33 32 33 41-3 63-29 60-74-43 2-92-5-92 41" id="Z"/><path fill="#333" d="M115-194c53 0 69 39 70 98 0 66-23 100-70 100C84 3 66-7 56-30L54 0H23l1-261h32v101c10-23 28-34 59-34zm-8 174c40 0 45-34 45-75 0-40-5-75-45-74-42 0-51 32-51 76 0 43 10 73 51 73" id="aa"/><path fill="#333" d="M24 0v-261h32V0H24" id="ab"/><path fill="#333" d="M106-169C34-169 62-67 57 0H25v-261h32l-1 103c12-21 28-36 61-36 89 0 53 116 60 194h-32v-121c2-32-8-49-39-48" id="ac"/><path fill="#333" d="M100-194c62-1 85 37 85 99 1 63-27 99-86 99S16-35 15-95c0-66 28-99 85-99zM99-20c44 1 53-31 53-75 0-43-8-75-51-75s-53 32-53 75 10 74 51 75" id="ad"/><g id="a"><use transform="matrix(0.05,0,0,0.05,0,0)" xlink:href="#X"/><use transform="matrix(0.05,0,0,0.05,10.3,0)" xlink:href="#Y"/><use transform="matrix(0.05,0,0,0.05,16.25,0)" xlink:href="#Z"/><use transform="matrix(0.05,0,0,0.05,26.25,0)" xlink:href="#aa"/><use transform="matrix(0.05,0,0,0.05,36.25,0)" xlink:href="#Z"/><use transform="matrix(0.05,0,0,0.05,46.25,0)" xlink:href="#ab"/><use transform="matrix(0.05,0,0,0.05,50.2,0)" xlink:href="#ac"/><use transform="matrix(0.05,0,0,0.05,60.2,0)" xlink:href="#ad"/></g><path fill="#333" d="M85-194c31 0 48 13 60 33l-1-100h32l1 261h-30c-2-10 0-23-3-31C134-8 116 4 85 4 32 4 16-35 15-94c0-66 23-100 70-100zm9 24c-40 0-46 34-46 75 0 40 6 74 45 74 42 0 51-32 51-76 0-42-9-74-50-73" id="ae"/><path fill="#333" d="M100-194c63 0 86 42 84 106H49c0 40 14 67 53 68 26 1 43-12 49-29l28 8c-11 28-37 45-77 45C44 4 14-33 15-96c1-61 26-98 85-98zm52 81c6-60-76-77-97-28-3 7-6 17-6 28h103" id="af"/><g id="b"><use transform="matrix(0.05,0,0,0.05,0,0)" xlink:href="#ae"/><use transform="matrix(0.05,0,0,0.05,10,0)" xlink:href="#af"/></g><path fill="#333" d="M212-179c-10-28-35-45-73-45-59 0-87 40-87 99 0 60 29 101 89 101 43 0 62-24 78-52l27 14C228-24 195 4 139 4 59 4 22-46 18-125c-6-104 99-153 187-111 19 9 31 26 39 46" id="ag"/><path fill="#333" d="M117-194c89-4 53 116 60 194h-32v-121c0-31-8-49-39-48C34-167 62-67 57 0H25l-1-190h30c1 10-1 24 2 32 11-22 29-35 61-36" id="ah"/><path fill="#333" d="M96-169c-40 0-48 33-48 73s9 75 48 75c24 0 41-14 43-38l32 2c-6 37-31 61-74 61-59 0-76-41-82-99-10-93 101-131 147-64 4 7 5 14 7 22l-32 3c-4-21-16-35-41-35" id="ai"/><path fill="#333" d="M84 4C-5 8 30-112 23-190h32v120c0 31 7 50 39 49 72-2 45-101 50-169h31l1 190h-30c-1-10 1-25-2-33-11 22-28 36-60 37" id="aj"/><path fill="#333" d="M135-143c-3-34-86-38-87 0 15 53 115 12 119 90S17 21 10-45l28-5c4 36 97 45 98 0-10-56-113-15-118-90-4-57 82-63 122-42 12 7 21 19 24 35" id="ak"/><path fill="#333" d="M141-36C126-15 110 5 73 4 37 3 15-17 15-53c-1-64 63-63 125-63 3-35-9-54-41-54-24 1-41 7-42 31l-33-3c5-37 33-52 76-52 45 0 72 20 72 64v82c-1 20 7 32 28 27v20c-31 9-61-2-59-35zM48-53c0 20 12 33 32 33 41-3 63-29 60-74-43 2-92-5-92 41zm117-205c-3 23-9 48-36 47-26-1-65-44-74 0H39c4-23 8-48 36-47s64 44 74 0h16" id="al"/><g id="c"><use transform="matrix(0.05,0,0,0.05,0,0)" xlink:href="#ag"/><use transform="matrix(0.05,0,0,0.05,12.950000000000001,0)" xlink:href="#ad"/><use transform="matrix(0.05,0,0,0.05,22.950000000000003,0)" xlink:href="#ah"/><use transform="matrix(0.05,0,0,0.05,32.95,0)" xlink:href="#ai"/><use transform="matrix(0.05,0,0,0.05,41.95,0)" xlink:href="#ab"/><use transform="matrix(0.05,0,0,0.05,45.900000000000006,0)" xlink:href="#aj"/><use transform="matrix(0.05,0,0,0.05,55.900000000000006,0)" xlink:href="#ak"/><use transform="matrix(0.05,0,0,0.05,64.9,0)" xlink:href="#al"/><use transform="matrix(0.05,0,0,0.05,74.9,0)" xlink:href="#ad"/></g><g id="d"><use transform="matrix(0.05,0,0,0.05,0,0)" xlink:href="#ag"/><use transform="matrix(0.05,0,0,0.05,12.950000000000001,0)" xlink:href="#aj"/><use transform="matrix(0.05,0,0,0.05,22.950000000000003,0)" xlink:href="#Y"/><use transform="matrix(0.05,0,0,0.05,28.900000000000002,0)" xlink:href="#ak"/><use transform="matrix(0.05,0,0,0.05,37.900000000000006,0)" xlink:href="#ad"/></g><path fill="#333" d="M27 0v-27h64v-190l-56 39v-29l58-41h29v221h61V0H27" id="am"/><use transform="matrix(0.05,0,0,0.05,0,0)" xlink:href="#am" id="e"/><path fill="#333" d="M30-248c118-7 216 8 213 122C240-48 200 0 122 0H30v-248zM63-27c89 8 146-16 146-99s-60-101-146-95v194" id="an"/><path fill="#333" d="M101-234c-31-9-42 10-38 44h38v23H63V0H32v-167H5v-23h27c-7-52 17-82 69-68v24" id="ao"/><path fill="#333" d="M24-231v-30h32v30H24zM24 0v-190h32V0H24" id="ap"/><g id="f"><use transform="matrix(0.056172839506172835,0,0,0.056172839506172835,0,0)" xlink:href="#an"/><use transform="matrix(0.056172839506172835,0,0,0.056172839506172835,14.548765432098763,0)" xlink:href="#af"/><use transform="matrix(0.056172839506172835,0,0,0.056172839506172835,25.78333333333333,0)" xlink:href="#ao"/><use transform="matrix(0.056172839506172835,0,0,0.056172839506172835,31.400617283950616,0)" xlink:href="#ap"/><use transform="matrix(0.056172839506172835,0,0,0.056172839506172835,35.83827160493827,0)" xlink:href="#ah"/><use transform="matrix(0.056172839506172835,0,0,0.056172839506172835,47.07283950617284,0)" xlink:href="#ap"/><use transform="matrix(0.056172839506172835,0,0,0.056172839506172835,51.510493827160495,0)" xlink:href="#Y"/></g><use transform="matrix(0.056172839506172835,0,0,0.056172839506172835,0,0)" xlink:href="#ad" id="g"/><path fill="#333" d="M210-169c-67 3-38 105-44 169h-31v-121c0-29-5-50-35-48C34-165 62-65 56 0H25l-1-190h30c1 10-1 24 2 32 10-44 99-50 107 0 11-21 27-35 58-36 85-2 47 119 55 194h-31v-121c0-29-5-49-35-48" id="aq"/><g id="h"><use transform="matrix(0.056172839506172835,0,0,0.056172839506172835,0,0)" xlink:href="#X"/><use transform="matrix(0.056172839506172835,0,0,0.056172839506172835,10.054938271604938,0)" xlink:href="#af"/><use transform="matrix(0.056172839506172835,0,0,0.056172839506172835,21.289506172839502,0)" xlink:href="#aq"/><use transform="matrix(0.056172839506172835,0,0,0.056172839506172835,38.08518518518518,0)" xlink:href="#Z"/></g><path fill="#333" d="M33 0v-248h34V0H33" id="ar"/><path fill="#333" d="M34 0v-190h32V0H34zM24-211c8-23 27-35 38-54h36v5l-58 49H24" id="as"/><g id="i"><use transform="matrix(0.05,0,0,0.05,0,0)" xlink:href="#ar"/><use transform="matrix(0.05,0,0,0.05,5,0)" xlink:href="#ah"/><use transform="matrix(0.05,0,0,0.05,15,0)" xlink:href="#as"/><use transform="matrix(0.05,0,0,0.05,20,0)" xlink:href="#ai"/><use transform="matrix(0.05,0,0,0.05,29,0)" xlink:href="#ap"/><use transform="matrix(0.05,0,0,0.05,32.95,0)" xlink:href="#ad"/></g><path fill="#333" d="M9 0v-24l116-142H16v-24h144v24L44-24h123V0H9" id="at"/><g id="j"><use transform="matrix(0.056172839506172835,0,0,0.056172839506172835,0,0)" xlink:href="#ag"/><use transform="matrix(0.056172839506172835,0,0,0.056172839506172835,14.548765432098763,0)" xlink:href="#ad"/><use transform="matrix(0.056172839506172835,0,0,0.056172839506172835,25.78333333333333,0)" xlink:href="#ah"/><use transform="matrix(0.056172839506172835,0,0,0.056172839506172835,37.0179012345679,0)" xlink:href="#ae"/><use transform="matrix(0.056172839506172835,0,0,0.056172839506172835,48.25246913580247,0)" xlink:href="#aj"/><use transform="matrix(0.056172839506172835,0,0,0.056172839506172835,59.48703703703705,0)" xlink:href="#at"/><use transform="matrix(0.056172839506172835,0,0,0.056172839506172835,69.59814814814816,0)" xlink:href="#ap"/><use transform="matrix(0.056172839506172835,0,0,0.056172839506172835,74.0358024691358,0)" xlink:href="#Y"/></g><path fill="#333" d="M30-248c87 1 191-15 191 75 0 78-77 80-158 76V0H30v-248zm33 125c57 0 124 11 124-50 0-59-68-47-124-48v98" id="au"/><path fill="#333" d="M145-31C134-9 116 4 85 4 32 4 16-35 15-94c0-59 17-99 70-100 32-1 48 14 60 33 0-11-1-24 2-32h30l-1 268h-32zM93-21c41 0 51-33 51-76s-8-73-50-73c-40 0-46 35-46 75s5 74 45 74" id="av"/><g id="k"><use transform="matrix(0.056172839506172835,0,0,0.056172839506172835,0,0)" xlink:href="#au"/><use transform="matrix(0.056172839506172835,0,0,0.056172839506172835,13.481481481481481,0)" xlink:href="#af"/><use transform="matrix(0.056172839506172835,0,0,0.056172839506172835,24.716049382716047,0)" xlink:href="#ak"/><use transform="matrix(0.056172839506172835,0,0,0.056172839506172835,34.82716049382716,0)" xlink:href="#av"/><use transform="matrix(0.056172839506172835,0,0,0.056172839506172835,46.06172839506172,0)" xlink:href="#aj"/><use transform="matrix(0.056172839506172835,0,0,0.056172839506172835,57.29629629629629,0)" xlink:href="#ap"/><use transform="matrix(0.056172839506172835,0,0,0.056172839506172835,61.733950617283945,0)" xlink:href="#ak"/><use transform="matrix(0.056172839506172835,0,0,0.056172839506172835,71.84506172839505,0)" xlink:href="#Z"/></g><path fill="#333" d="M160-131c35 5 61 23 61 61C221 17 115-2 30 0v-248c76 3 177-17 177 60 0 33-19 50-47 57zm-97-11c50-1 110 9 110-42 0-47-63-36-110-37v79zm0 115c55-2 124 14 124-45 0-56-70-42-124-44v89" id="aw"/><path fill="#333" d="M177-190C167-65 218 103 67 71c-23-6-38-20-44-43l32-5c15 47 100 32 89-28v-30C133-14 115 1 83 1 29 1 15-40 15-95c0-56 16-97 71-98 29-1 48 16 59 35 1-10 0-23 2-32h30zM94-22c36 0 50-32 50-73 0-42-14-75-50-75-39 0-46 34-46 75s6 73 46 73" id="ax"/><path fill="#333" d="M141-36C126-15 110 5 73 4 37 3 15-17 15-53c-1-64 63-63 125-63 3-35-9-54-41-54-24 1-41 7-42 31l-33-3c5-37 33-52 76-52 45 0 72 20 72 64v82c-1 20 7 32 28 27v20c-31 9-61-2-59-35zM48-53c0 20 12 33 32 33 41-3 63-29 60-74-43 2-92-5-92 41zm25-158c8-23 27-35 38-54h36v5l-58 49H73" id="ay"/><g id="l"><use transform="matrix(0.056172839506172835,0,0,0.056172839506172835,0,0)" xlink:href="#aw"/><use transform="matrix(0.056172839506172835,0,0,0.056172839506172835,13.481481481481481,0)" xlink:href="#ap"/><use transform="matrix(0.056172839506172835,0,0,0.056172839506172835,17.919135802469135,0)" xlink:href="#aa"/><use transform="matrix(0.056172839506172835,0,0,0.056172839506172835,29.1537037037037,0)" xlink:href="#ab"/><use transform="matrix(0.056172839506172835,0,0,0.056172839506172835,33.59135802469135,0)" xlink:href="#ap"/><use transform="matrix(0.056172839506172835,0,0,0.056172839506172835,38.02901234567901,0)" xlink:href="#ad"/><use transform="matrix(0.056172839506172835,0,0,0.056172839506172835,49.26358024691358,0)" xlink:href="#ax"/><use transform="matrix(0.056172839506172835,0,0,0.056172839506172835,60.49814814814815,0)" xlink:href="#Y"/><use transform="matrix(0.056172839506172835,0,0,0.056172839506172835,67.18271604938272,0)" xlink:href="#ay"/><use transform="matrix(0.056172839506172835,0,0,0.056172839506172835,78.41728395061729,0)" xlink:href="#ao"/><use transform="matrix(0.056172839506172835,0,0,0.056172839506172835,84.03456790123457,0)" xlink:href="#ap"/><use transform="matrix(0.056172839506172835,0,0,0.056172839506172835,88.47222222222221,0)" xlink:href="#ai"/><use transform="matrix(0.056172839506172835,0,0,0.056172839506172835,98.58333333333333,0)" xlink:href="#Z"/></g><path fill="#333" d="M63-220v92h138v28H63V0H30v-248h175v28H63" id="az"/><g id="m"><use transform="matrix(0.056172839506172835,0,0,0.056172839506172835,0,0)" xlink:href="#az"/><use transform="matrix(0.056172839506172835,0,0,0.056172839506172835,12.30185185185185,0)" xlink:href="#ad"/><use transform="matrix(0.056172839506172835,0,0,0.056172839506172835,23.536419753086417,0)" xlink:href="#Y"/><use transform="matrix(0.056172839506172835,0,0,0.056172839506172835,30.220987654320986,0)" xlink:href="#aq"/><use transform="matrix(0.056172839506172835,0,0,0.056172839506172835,47.016666666666666,0)" xlink:href="#aj"/><use transform="matrix(0.056172839506172835,0,0,0.056172839506172835,58.25123456790123,0)" xlink:href="#ab"/><use transform="matrix(0.056172839506172835,0,0,0.056172839506172835,62.68888888888888,0)" xlink:href="#Z"/><use transform="matrix(0.056172839506172835,0,0,0.056172839506172835,73.92345679012345,0)" xlink:href="#Y"/></g><path fill="#333" d="M115-194c55 1 70 41 70 98S169 2 115 4C84 4 66-9 55-30l1 105H24l-1-265h31l2 30c10-21 28-34 59-34zm-8 174c40 0 45-34 45-75s-6-73-45-74c-42 0-51 32-51 76 0 43 10 73 51 73" id="aA"/><path fill="#333" d="M59-47c-2 24 18 29 38 22v24C64 9 27 4 27-40v-127H5v-23h24l9-43h21v43h35v23H59v120" id="aB"/><g id="n"><use transform="matrix(0.056172839506172835,0,0,0.056172839506172835,0,0)" xlink:href="#au"/><use transform="matrix(0.056172839506172835,0,0,0.056172839506172835,13.481481481481481,0)" xlink:href="#Y"/><use transform="matrix(0.056172839506172835,0,0,0.056172839506172835,20.166049382716047,0)" xlink:href="#ad"/><use transform="matrix(0.056172839506172835,0,0,0.056172839506172835,31.400617283950616,0)" xlink:href="#aA"/><use transform="matrix(0.056172839506172835,0,0,0.056172839506172835,42.63518518518518,0)" xlink:href="#ad"/><use transform="matrix(0.056172839506172835,0,0,0.056172839506172835,53.86975308641975,0)" xlink:href="#ak"/><use transform="matrix(0.056172839506172835,0,0,0.056172839506172835,63.980864197530856,0)" xlink:href="#aB"/><use transform="matrix(0.056172839506172835,0,0,0.056172839506172835,69.59814814814814,0)" xlink:href="#Z"/></g><g id="o"><use transform="matrix(0.056172839506172835,0,0,0.056172839506172835,0,0)" xlink:href="#ar"/><use transform="matrix(0.056172839506172835,0,0,0.056172839506172835,5.617283950617283,0)" xlink:href="#ah"/><use transform="matrix(0.056172839506172835,0,0,0.056172839506172835,16.851851851851848,0)" xlink:href="#ap"/><use transform="matrix(0.056172839506172835,0,0,0.056172839506172835,21.289506172839502,0)" xlink:href="#ai"/><use transform="matrix(0.056172839506172835,0,0,0.056172839506172835,31.400617283950616,0)" xlink:href="#ap"/><use transform="matrix(0.056172839506172835,0,0,0.056172839506172835,35.838271604938264,0)" xlink:href="#Z"/><use transform="matrix(0.056172839506172835,0,0,0.056172839506172835,47.072839506172826,0)" xlink:href="#ab"/></g><path fill="#333" d="M108 0H70L1-190h34L89-25l56-165h34" id="aC"/><g id="p"><use transform="matrix(0.056172839506172835,0,0,0.056172839506172835,0,0)" xlink:href="#an"/><use transform="matrix(0.056172839506172835,0,0,0.056172839506172835,14.548765432098763,0)" xlink:href="#af"/><use transform="matrix(0.056172839506172835,0,0,0.056172839506172835,25.78333333333333,0)" xlink:href="#ak"/><use transform="matrix(0.056172839506172835,0,0,0.056172839506172835,35.894444444444446,0)" xlink:href="#af"/><use transform="matrix(0.056172839506172835,0,0,0.056172839506172835,47.129012345679016,0)" xlink:href="#ah"/><use transform="matrix(0.056172839506172835,0,0,0.056172839506172835,58.363580246913585,0)" xlink:href="#aC"/><use transform="matrix(0.056172839506172835,0,0,0.056172839506172835,68.4746913580247,0)" xlink:href="#ad"/><use transform="matrix(0.056172839506172835,0,0,0.056172839506172835,79.70925925925927,0)" xlink:href="#ab"/><use transform="matrix(0.056172839506172835,0,0,0.056172839506172835,84.14691358024692,0)" xlink:href="#aC"/><use transform="matrix(0.056172839506172835,0,0,0.056172839506172835,94.25802469135803,0)" xlink:href="#af"/><use transform="matrix(0.056172839506172835,0,0,0.056172839506172835,105.4925925925926,0)" xlink:href="#Y"/></g><use transform="matrix(0.056172839506172835,0,0,0.056172839506172835,0,0)" xlink:href="#Z" id="q"/><path fill="#333" d="M240 0l2-218c-23 76-54 145-80 218h-23L58-218 59 0H30v-248h44l77 211c21-75 51-140 76-211h43V0h-30" id="aD"/><g id="r"><use transform="matrix(0.056172839506172835,0,0,0.056172839506172835,0,0)" xlink:href="#aD"/><use transform="matrix(0.056172839506172835,0,0,0.056172839506172835,16.795679012345676,0)" xlink:href="#af"/><use transform="matrix(0.056172839506172835,0,0,0.056172839506172835,28.030246913580243,0)" xlink:href="#aB"/><use transform="matrix(0.056172839506172835,0,0,0.056172839506172835,33.64753086419753,0)" xlink:href="#ad"/><use transform="matrix(0.056172839506172835,0,0,0.056172839506172835,44.88209876543209,0)" xlink:href="#ae"/><use transform="matrix(0.056172839506172835,0,0,0.056172839506172835,56.11666666666666,0)" xlink:href="#ad"/><use transform="matrix(0.056172839506172835,0,0,0.056172839506172835,67.35123456790123,0)" xlink:href="#ab"/><use transform="matrix(0.056172839506172835,0,0,0.056172839506172835,71.78888888888888,0)" xlink:href="#ad"/><use transform="matrix(0.056172839506172835,0,0,0.056172839506172835,83.02345679012345,0)" xlink:href="#ax"/><use transform="matrix(0.056172839506172835,0,0,0.056172839506172835,94.25802469135802,0)" xlink:href="#ap"/><use transform="matrix(0.056172839506172835,0,0,0.056172839506172835,98.69567901234566,0)" xlink:href="#Z"/></g><use transform="matrix(0.056172839506172835,0,0,0.056172839506172835,0,0)" xlink:href="#ad" id="s"/><path fill="#333" d="M233-177c-1 41-23 64-60 70L243 0h-38l-65-103H63V0H30v-248c88 3 205-21 203 71zM63-129c60-2 137 13 137-47 0-61-80-42-137-45v92" id="aE"/><g id="t"><use transform="matrix(0.056172839506172835,0,0,0.056172839506172835,0,0)" xlink:href="#aE"/><use transform="matrix(0.056172839506172835,0,0,0.056172839506172835,14.548765432098763,0)" xlink:href="#af"/><use transform="matrix(0.056172839506172835,0,0,0.056172839506172835,25.78333333333333,0)" xlink:href="#ao"/><use transform="matrix(0.056172839506172835,0,0,0.056172839506172835,31.400617283950616,0)" xlink:href="#af"/><use transform="matrix(0.056172839506172835,0,0,0.056172839506172835,42.63518518518518,0)" xlink:href="#Y"/><use transform="matrix(0.056172839506172835,0,0,0.056172839506172835,49.319753086419745,0)" xlink:href="#af"/><use transform="matrix(0.056172839506172835,0,0,0.056172839506172835,60.5543209876543,0)" xlink:href="#ah"/><use transform="matrix(0.056172839506172835,0,0,0.056172839506172835,71.78888888888888,0)" xlink:href="#ai"/><use transform="matrix(0.056172839506172835,0,0,0.056172839506172835,81.89999999999999,0)" xlink:href="#ap"/><use transform="matrix(0.056172839506172835,0,0,0.056172839506172835,86.33765432098764,0)" xlink:href="#Z"/><use transform="matrix(0.056172839506172835,0,0,0.056172839506172835,97.57222222222221,0)" xlink:href="#ab"/></g><path fill="#333" d="M100-194c62-1 85 37 85 99 1 63-27 99-86 99S16-35 15-95c0-66 28-99 85-99zM99-20c44 1 53-31 53-75 0-43-8-75-51-75s-53 32-53 75 10 74 51 75zM76-211c8-23 27-35 38-54h36v5l-58 49H76" id="aF"/><g id="u"><use transform="matrix(0.056172839506172835,0,0,0.056172839506172835,0,0)" xlink:href="#X"/><use transform="matrix(0.056172839506172835,0,0,0.056172839506172835,10.054938271604938,0)" xlink:href="#af"/><use transform="matrix(0.056172839506172835,0,0,0.056172839506172835,21.289506172839502,0)" xlink:href="#aF"/><use transform="matrix(0.056172839506172835,0,0,0.056172839506172835,32.524074074074065,0)" xlink:href="#Y"/><use transform="matrix(0.056172839506172835,0,0,0.056172839506172835,39.20864197530863,0)" xlink:href="#ap"/><use transform="matrix(0.056172839506172835,0,0,0.056172839506172835,43.646296296296285,0)" xlink:href="#ai"/><use transform="matrix(0.056172839506172835,0,0,0.056172839506172835,53.7574074074074,0)" xlink:href="#ad"/></g><g id="v"><use transform="matrix(0.056172839506172835,0,0,0.056172839506172835,0,0)" xlink:href="#aE"/><use transform="matrix(0.056172839506172835,0,0,0.056172839506172835,14.548765432098763,0)" xlink:href="#af"/><use transform="matrix(0.056172839506172835,0,0,0.056172839506172835,25.78333333333333,0)" xlink:href="#ao"/><use transform="matrix(0.056172839506172835,0,0,0.056172839506172835,31.400617283950616,0)" xlink:href="#ap"/><use transform="matrix(0.056172839506172835,0,0,0.056172839506172835,35.83827160493827,0)" xlink:href="#ah"/><use transform="matrix(0.056172839506172835,0,0,0.056172839506172835,47.07283950617284,0)" xlink:href="#Z"/><use transform="matrix(0.056172839506172835,0,0,0.056172839506172835,58.30740740740742,0)" xlink:href="#Y"/></g><g id="w"><use transform="matrix(0.056172839506172835,0,0,0.056172839506172835,0,0)" xlink:href="#au"/><use transform="matrix(0.056172839506172835,0,0,0.056172839506172835,13.481481481481481,0)" xlink:href="#Y"/><use transform="matrix(0.056172839506172835,0,0,0.056172839506172835,20.166049382716047,0)" xlink:href="#ad"/><use transform="matrix(0.056172839506172835,0,0,0.056172839506172835,31.400617283950616,0)" xlink:href="#aA"/><use transform="matrix(0.056172839506172835,0,0,0.056172839506172835,42.63518518518518,0)" xlink:href="#ad"/><use transform="matrix(0.056172839506172835,0,0,0.056172839506172835,53.86975308641975,0)" xlink:href="#ak"/><use transform="matrix(0.056172839506172835,0,0,0.056172839506172835,63.980864197530856,0)" xlink:href="#aB"/><use transform="matrix(0.056172839506172835,0,0,0.056172839506172835,69.59814814814814,0)" xlink:href="#Z"/></g><g id="x"><use transform="matrix(0.056172839506172835,0,0,0.056172839506172835,0,0)" xlink:href="#ag"/><use transform="matrix(0.056172839506172835,0,0,0.056172839506172835,14.548765432098763,0)" xlink:href="#Y"/><use transform="matrix(0.056172839506172835,0,0,0.056172839506172835,21.23333333333333,0)" xlink:href="#ap"/><use transform="matrix(0.056172839506172835,0,0,0.056172839506172835,25.670987654320985,0)" xlink:href="#Z"/><use transform="matrix(0.056172839506172835,0,0,0.056172839506172835,36.90555555555555,0)" xlink:href="#Y"/></g><use transform="matrix(0.056172839506172835,0,0,0.056172839506172835,0,0)" xlink:href="#Z" id="y"/><g id="z"><use transform="matrix(0.056172839506172835,0,0,0.056172839506172835,0,0)" xlink:href="#au"/><use transform="matrix(0.056172839506172835,0,0,0.056172839506172835,13.481481481481481,0)" xlink:href="#Y"/><use transform="matrix(0.056172839506172835,0,0,0.056172839506172835,20.166049382716047,0)" xlink:href="#ad"/><use transform="matrix(0.056172839506172835,0,0,0.056172839506172835,31.400617283950616,0)" xlink:href="#aC"/><use transform="matrix(0.056172839506172835,0,0,0.056172839506172835,41.51172839506172,0)" xlink:href="#Z"/></g><g id="A"><use transform="matrix(0.056172839506172835,0,0,0.056172839506172835,0,0)" xlink:href="#ae"/><use transform="matrix(0.056172839506172835,0,0,0.056172839506172835,11.234567901234566,0)" xlink:href="#af"/></g><g id="B"><use transform="matrix(0.056172839506172835,0,0,0.056172839506172835,0,0)" xlink:href="#ag"/><use transform="matrix(0.056172839506172835,0,0,0.056172839506172835,14.548765432098763,0)" xlink:href="#ad"/><use transform="matrix(0.056172839506172835,0,0,0.056172839506172835,25.78333333333333,0)" xlink:href="#ah"/><use transform="matrix(0.056172839506172835,0,0,0.056172839506172835,37.0179012345679,0)" xlink:href="#ai"/><use transform="matrix(0.056172839506172835,0,0,0.056172839506172835,47.129012345679016,0)" xlink:href="#af"/><use transform="matrix(0.056172839506172835,0,0,0.056172839506172835,58.363580246913585,0)" xlink:href="#ap"/><use transform="matrix(0.056172839506172835,0,0,0.056172839506172835,62.80123456790124,0)" xlink:href="#aB"/><use transform="matrix(0.056172839506172835,0,0,0.056172839506172835,68.41851851851852,0)" xlink:href="#ad"/></g><g id="C"><use transform="matrix(0.056172839506172835,0,0,0.056172839506172835,0,0)" xlink:href="#an"/><use transform="matrix(0.056172839506172835,0,0,0.056172839506172835,14.548765432098763,0)" xlink:href="#af"/><use transform="matrix(0.056172839506172835,0,0,0.056172839506172835,25.78333333333333,0)" xlink:href="#ak"/><use transform="matrix(0.056172839506172835,0,0,0.056172839506172835,35.894444444444446,0)" xlink:href="#ai"/><use transform="matrix(0.056172839506172835,0,0,0.056172839506172835,46.00555555555556,0)" xlink:href="#Y"/><use transform="matrix(0.056172839506172835,0,0,0.056172839506172835,52.690123456790126,0)" xlink:href="#af"/><use transform="matrix(0.056172839506172835,0,0,0.056172839506172835,63.92469135802469,0)" xlink:href="#aC"/><use transform="matrix(0.056172839506172835,0,0,0.056172839506172835,74.0358024691358,0)" xlink:href="#af"/><use transform="matrix(0.056172839506172835,0,0,0.056172839506172835,85.27037037037037,0)" xlink:href="#Y"/></g><g id="D"><use transform="matrix(0.056172839506172835,0,0,0.056172839506172835,0,0)" xlink:href="#ad"/><use transform="matrix(0.056172839506172835,0,0,0.056172839506172835,11.234567901234566,0)" xlink:href="#ak"/></g><g id="E"><use transform="matrix(0.056172839506172835,0,0,0.056172839506172835,0,0)" xlink:href="#aE"/><use transform="matrix(0.056172839506172835,0,0,0.056172839506172835,14.548765432098763,0)" xlink:href="#af"/><use transform="matrix(0.056172839506172835,0,0,0.056172839506172835,25.78333333333333,0)" xlink:href="#ak"/><use transform="matrix(0.056172839506172835,0,0,0.056172839506172835,35.894444444444446,0)" xlink:href="#aj"/><use transform="matrix(0.056172839506172835,0,0,0.056172839506172835,47.129012345679016,0)" xlink:href="#ab"/><use transform="matrix(0.056172839506172835,0,0,0.056172839506172835,51.56666666666667,0)" xlink:href="#aB"/><use transform="matrix(0.056172839506172835,0,0,0.056172839506172835,57.183950617283955,0)" xlink:href="#Z"/><use transform="matrix(0.056172839506172835,0,0,0.056172839506172835,68.41851851851852,0)" xlink:href="#ae"/><use transform="matrix(0.056172839506172835,0,0,0.056172839506172835,79.6530864197531,0)" xlink:href="#ad"/><use transform="matrix(0.056172839506172835,0,0,0.056172839506172835,90.88765432098766,0)" xlink:href="#ak"/></g><g id="F"><use transform="matrix(0.056172839506172835,0,0,0.056172839506172835,0,0)" xlink:href="#au"/><use transform="matrix(0.056172839506172835,0,0,0.056172839506172835,13.481481481481481,0)" xlink:href="#Z"/><use transform="matrix(0.056172839506172835,0,0,0.056172839506172835,24.716049382716047,0)" xlink:href="#Y"/><use transform="matrix(0.056172839506172835,0,0,0.056172839506172835,31.400617283950616,0)" xlink:href="#ai"/><use transform="matrix(0.056172839506172835,0,0,0.056172839506172835,41.51172839506172,0)" xlink:href="#ap"/><use transform="matrix(0.056172839506172835,0,0,0.056172839506172835,45.94938271604938,0)" xlink:href="#Z"/><use transform="matrix(0.056172839506172835,0,0,0.056172839506172835,57.18395061728394,0)" xlink:href="#ap"/><use transform="matrix(0.056172839506172835,0,0,0.056172839506172835,61.6216049382716,0)" xlink:href="#ak"/></g><path fill="#333" d="M205 0l-28-72H64L36 0H1l101-248h38L239 0h-34zm-38-99l-47-123c-12 45-31 82-46 123h93" id="aG"/><g id="G"><use transform="matrix(0.056172839506172835,0,0,0.056172839506172835,0,0)" xlink:href="#aG"/><use transform="matrix(0.056172839506172835,0,0,0.056172839506172835,13.481481481481481,0)" xlink:href="#aA"/><use transform="matrix(0.056172839506172835,0,0,0.056172839506172835,24.716049382716047,0)" xlink:href="#Y"/><use transform="matrix(0.056172839506172835,0,0,0.056172839506172835,31.400617283950616,0)" xlink:href="#af"/><use transform="matrix(0.056172839506172835,0,0,0.056172839506172835,42.63518518518518,0)" xlink:href="#ak"/><use transform="matrix(0.056172839506172835,0,0,0.056172839506172835,52.74629629629629,0)" xlink:href="#af"/><use transform="matrix(0.056172839506172835,0,0,0.056172839506172835,63.980864197530856,0)" xlink:href="#ah"/><use transform="matrix(0.056172839506172835,0,0,0.056172839506172835,75.21543209876543,0)" xlink:href="#aB"/><use transform="matrix(0.056172839506172835,0,0,0.056172839506172835,80.83271604938271,0)" xlink:href="#Z"/><use transform="matrix(0.056172839506172835,0,0,0.056172839506172835,92.06728395061728,0)" xlink:href="#Y"/></g><g id="H"><use transform="matrix(0.056172839506172835,0,0,0.056172839506172835,0,0)" xlink:href="#X"/><use transform="matrix(0.056172839506172835,0,0,0.056172839506172835,12.30185185185185,0)" xlink:href="#ag"/><use transform="matrix(0.056172839506172835,0,0,0.056172839506172835,26.850617283950612,0)" xlink:href="#ag"/><use transform="matrix(0.056172839506172835,0,0,0.056172839506172835,41.399382716049374,0)" xlink:href="#am"/></g><g id="I"><use transform="matrix(0.05,0,0,0.05,0,0)" xlink:href="#az"/><use transform="matrix(0.05,0,0,0.05,10.950000000000001,0)" xlink:href="#ap"/><use transform="matrix(0.05,0,0,0.05,14.9,0)" xlink:href="#aq"/></g><path fill="#333" d="M30 0v-248h187v28H63v79h144v27H63v87h162V0H30" id="aH"/><g id="J"><use transform="matrix(0.056172839506172835,0,0,0.056172839506172835,0,0)" xlink:href="#aH"/><use transform="matrix(0.056172839506172835,0,0,0.056172839506172835,13.481481481481481,0)" xlink:href="#ak"/><use transform="matrix(0.056172839506172835,0,0,0.056172839506172835,23.59259259259259,0)" xlink:href="#aB"/><use transform="matrix(0.056172839506172835,0,0,0.056172839506172835,29.209876543209873,0)" xlink:href="#Z"/><use transform="matrix(0.056172839506172835,0,0,0.056172839506172835,40.44444444444444,0)" xlink:href="#aa"/><use transform="matrix(0.056172839506172835,0,0,0.056172839506172835,51.67901234567901,0)" xlink:href="#af"/><use transform="matrix(0.056172839506172835,0,0,0.056172839506172835,62.91358024691359,0)" xlink:href="#ab"/><use transform="matrix(0.056172839506172835,0,0,0.056172839506172835,67.35123456790123,0)" xlink:href="#af"/><use transform="matrix(0.056172839506172835,0,0,0.056172839506172835,78.5858024691358,0)" xlink:href="#ai"/><use transform="matrix(0.056172839506172835,0,0,0.056172839506172835,88.69691358024691,0)" xlink:href="#af"/><use transform="matrix(0.056172839506172835,0,0,0.056172839506172835,99.93148148148148,0)" xlink:href="#Y"/></g><path fill="#333" d="M185-189c-5-48-123-54-124 2 14 75 158 14 163 119 3 78-121 87-175 55-17-10-28-26-33-46l33-7c5 56 141 63 141-1 0-78-155-14-162-118-5-82 145-84 179-34 5 7 8 16 11 25" id="aI"/><g id="K"><use transform="matrix(0.056172839506172835,0,0,0.056172839506172835,0,0)" xlink:href="#aI"/><use transform="matrix(0.056172839506172835,0,0,0.056172839506172835,13.481481481481481,0)" xlink:href="#aj"/><use transform="matrix(0.056172839506172835,0,0,0.056172839506172835,24.716049382716047,0)" xlink:href="#aA"/><use transform="matrix(0.056172839506172835,0,0,0.056172839506172835,35.95061728395061,0)" xlink:href="#ad"/><use transform="matrix(0.056172839506172835,0,0,0.056172839506172835,47.185185185185176,0)" xlink:href="#Y"/><use transform="matrix(0.056172839506172835,0,0,0.056172839506172835,53.86975308641974,0)" xlink:href="#aB"/><use transform="matrix(0.056172839506172835,0,0,0.056172839506172835,59.487037037037034,0)" xlink:href="#af"/></g><g id="L"><use transform="matrix(0.056172839506172835,0,0,0.056172839506172835,0,0)" xlink:href="#X"/><use transform="matrix(0.056172839506172835,0,0,0.056172839506172835,10.054938271604938,0)" xlink:href="#af"/><use transform="matrix(0.056172839506172835,0,0,0.056172839506172835,21.289506172839502,0)" xlink:href="#ai"/><use transform="matrix(0.056172839506172835,0,0,0.056172839506172835,31.400617283950616,0)" xlink:href="#ah"/><use transform="matrix(0.056172839506172835,0,0,0.056172839506172835,42.63518518518518,0)" xlink:href="#ad"/><use transform="matrix(0.056172839506172835,0,0,0.056172839506172835,53.86975308641975,0)" xlink:href="#ab"/><use transform="matrix(0.056172839506172835,0,0,0.056172839506172835,58.3074074074074,0)" xlink:href="#aF"/><use transform="matrix(0.056172839506172835,0,0,0.056172839506172835,69.54197530864197,0)" xlink:href="#ax"/><use transform="matrix(0.056172839506172835,0,0,0.056172839506172835,80.77654320987654,0)" xlink:href="#ap"/><use transform="matrix(0.056172839506172835,0,0,0.056172839506172835,85.21419753086418,0)" xlink:href="#ai"/><use transform="matrix(0.056172839506172835,0,0,0.056172839506172835,95.3253086419753,0)" xlink:href="#ad"/></g><g id="N"><use transform="matrix(0.05,0,0,0.05,0,0)" xlink:href="#ag"/><use transform="matrix(0.05,0,0,0.05,12.950000000000001,0)" xlink:href="#Z"/><use transform="matrix(0.05,0,0,0.05,22.950000000000003,0)" xlink:href="#aA"/><use transform="matrix(0.05,0,0,0.05,32.95,0)" xlink:href="#as"/><use transform="matrix(0.05,0,0,0.05,37.95,0)" xlink:href="#aB"/><use transform="matrix(0.05,0,0,0.05,42.95,0)" xlink:href="#aj"/><use transform="matrix(0.05,0,0,0.05,52.95,0)" xlink:href="#ab"/><use transform="matrix(0.05,0,0,0.05,56.900000000000006,0)" xlink:href="#ad"/></g><path fill="#333" d="M101-251c82-7 93 87 43 132L82-64C71-53 59-42 53-27h129V0H18c2-99 128-94 128-182 0-28-16-43-45-43s-46 15-49 41l-32-3c6-41 34-60 81-64" id="aJ"/><use transform="matrix(0.05,0,0,0.05,0,0)" xlink:href="#aJ" id="O"/><path fill="#333" d="M126-127c33 6 58 20 58 59 0 88-139 92-164 29-3-8-5-16-6-25l32-3c6 27 21 44 54 44 32 0 52-15 52-46 0-38-36-46-79-43v-28c39 1 72-4 72-42 0-27-17-43-46-43-28 0-47 15-49 41l-32-3c6-42 35-63 81-64 48-1 79 21 79 65 0 36-21 52-52 59" id="aK"/><use transform="matrix(0.05,0,0,0.05,0,0)" xlink:href="#aK" id="P"/><path fill="#333" d="M155-56V0h-30v-56H8v-25l114-167h33v167h35v25h-35zm-30-156c-27 46-58 90-88 131h88v-131" id="aL"/><use transform="matrix(0.05,0,0,0.05,0,0)" xlink:href="#aL" id="Q"/><path fill="#333" d="M54-142c48-35 137-8 131 61C196 18 31 33 14-55l32-4c7 23 22 37 52 37 35-1 51-22 54-58 4-55-73-65-99-34H22l8-134h141v27H59" id="aM"/><use transform="matrix(0.05,0,0,0.05,0,0)" xlink:href="#aM" id="R"/><path fill="#333" d="M110-160c48 1 74 30 74 79 0 53-28 85-80 85-65 0-83-55-86-122-5-90 50-162 133-122 14 7 22 21 27 39l-31 6c-5-40-67-38-82-6-9 19-15 44-15 74 11-20 30-34 60-33zm-7 138c34 0 49-23 49-58s-16-56-50-56c-29 0-50 16-49 49 1 36 15 65 50 65" id="aN"/><use transform="matrix(0.05,0,0,0.05,0,0)" xlink:href="#aN" id="S"/><g id="T"><use transform="matrix(0.05,0,0,0.05,0,0)" xlink:href="#aD"/><use transform="matrix(0.05,0,0,0.05,14.950000000000001,0)" xlink:href="#af"/><use transform="matrix(0.05,0,0,0.05,24.950000000000003,0)" xlink:href="#aB"/><use transform="matrix(0.05,0,0,0.05,29.950000000000003,0)" xlink:href="#ad"/><use transform="matrix(0.05,0,0,0.05,39.95,0)" xlink:href="#ae"/><use transform="matrix(0.05,0,0,0.05,49.95,0)" xlink:href="#ad"/><use transform="matrix(0.05,0,0,0.05,59.95,0)" xlink:href="#ab"/><use transform="matrix(0.05,0,0,0.05,63.900000000000006,0)" xlink:href="#ad"/><use transform="matrix(0.05,0,0,0.05,73.9,0)" xlink:href="#ax"/><use transform="matrix(0.05,0,0,0.05,83.9,0)" xlink:href="#ap"/><use transform="matrix(0.05,0,0,0.05,87.85000000000001,0)" xlink:href="#Z"/></g><g id="U"><use transform="matrix(0.05,0,0,0.05,0,0)" xlink:href="#ar"/><use transform="matrix(0.05,0,0,0.05,5,0)" xlink:href="#ah"/><use transform="matrix(0.05,0,0,0.05,15,0)" xlink:href="#aC"/><use transform="matrix(0.05,0,0,0.05,24,0)" xlink:href="#af"/><use transform="matrix(0.05,0,0,0.05,34,0)" xlink:href="#ak"/><use transform="matrix(0.05,0,0,0.05,43,0)" xlink:href="#aB"/><use transform="matrix(0.05,0,0,0.05,48,0)" xlink:href="#ap"/><use transform="matrix(0.05,0,0,0.05,51.95,0)" xlink:href="#ax"/><use transform="matrix(0.05,0,0,0.05,61.95,0)" xlink:href="#Z"/><use transform="matrix(0.05,0,0,0.05,71.95,0)" xlink:href="#aB"/><use transform="matrix(0.05,0,0,0.05,76.95,0)" xlink:href="#ap"/><use transform="matrix(0.05,0,0,0.05,80.9,0)" xlink:href="#aC"/><use transform="matrix(0.05,0,0,0.05,89.9,0)" xlink:href="#Z"/></g><path fill="#333" d="M100-194c63 0 86 42 84 106H49c0 40 14 67 53 68 26 1 43-12 49-29l28 8c-11 28-37 45-77 45C44 4 14-33 15-96c1-61 26-98 85-98zm52 81c6-60-76-77-97-28-3 7-6 17-6 28h103zm-32-149c12 18 30 30 39 51-31 2-38-20-57-30-20 10-27 32-59 30 9-22 29-33 41-51h36" id="aO"/><g id="V"><use transform="matrix(0.05,0,0,0.05,0,0)" xlink:href="#aE"/><use transform="matrix(0.05,0,0,0.05,12.950000000000001,0)" xlink:href="#af"/><use transform="matrix(0.05,0,0,0.05,22.950000000000003,0)" xlink:href="#ao"/><use transform="matrix(0.05,0,0,0.05,27.950000000000003,0)" xlink:href="#af"/><use transform="matrix(0.05,0,0,0.05,37.95,0)" xlink:href="#Y"/><use transform="matrix(0.05,0,0,0.05,43.900000000000006,0)" xlink:href="#aO"/><use transform="matrix(0.05,0,0,0.05,53.900000000000006,0)" xlink:href="#ah"/><use transform="matrix(0.05,0,0,0.05,63.900000000000006,0)" xlink:href="#ai"/><use transform="matrix(0.05,0,0,0.05,72.9,0)" xlink:href="#ap"/><use transform="matrix(0.05,0,0,0.05,76.85000000000001,0)" xlink:href="#Z"/><use transform="matrix(0.05,0,0,0.05,86.85000000000001,0)" xlink:href="#ak"/></g><g id="W"><use transform="matrix(0.05,0,0,0.05,0,0)" xlink:href="#aw"/><use transform="matrix(0.05,0,0,0.05,12,0)" xlink:href="#ap"/><use transform="matrix(0.05,0,0,0.05,15.949999999999998,0)" xlink:href="#aa"/><use transform="matrix(0.05,0,0,0.05,25.950000000000003,0)" xlink:href="#ab"/><use transform="matrix(0.05,0,0,0.05,29.899999999999995,0)" xlink:href="#ap"/><use transform="matrix(0.05,0,0,0.05,33.85,0)" xlink:href="#ad"/><use transform="matrix(0.05,0,0,0.05,43.85,0)" xlink:href="#ax"/><use transform="matrix(0.05,0,0,0.05,53.85,0)" xlink:href="#Y"/><use transform="matrix(0.05,0,0,0.05,59.800000000000004,0)" xlink:href="#ay"/><use transform="matrix(0.05,0,0,0.05,69.80000000000001,0)" xlink:href="#ao"/><use transform="matrix(0.05,0,0,0.05,74.80000000000001,0)" xlink:href="#ap"/><use transform="matrix(0.05,0,0,0.05,78.75000000000001,0)" xlink:href="#ai"/><use transform="matrix(0.05,0,0,0.05,87.75000000000001,0)" xlink:href="#Z"/><use transform="matrix(0.05,0,0,0.05,97.75000000000001,0)" xlink:href="#ak"/></g></defs></g></svg>